<svg xmlns="http://www.w3.org/2000/svg" xmlns:xlink="http://www.w3.org/1999/xlink" width="16" height="16" viewBox="0 0 16 16">
  <defs>
    <clipPath id="clip-path">
      <rect id="Rectangle_22167" data-name="Rectangle 22167" width="16" height="16" transform="translate(-471 -7169)" fill="#fff"/>
    </clipPath>
  </defs>
  <g id="_3rd_party_Lined" data-name="3rd_party Lined" transform="translate(471 7169)" clip-path="url(#clip-path)">
    <g id="stakeholder_4471591" transform="translate(-471 -7169)">
      <path id="Path_14624" data-name="Path 14624" d="M9.406,2.375A1.406,1.406,0,1,0,8,3.781,1.408,1.408,0,0,0,9.406,2.375ZM8,2.844a.469.469,0,1,1,.469-.469A.469.469,0,0,1,8,2.844Z" fill="#fff"/>
      <path id="Path_14625" data-name="Path 14625" d="M3.75,8.938a1.406,1.406,0,1,0-1.406,1.406A1.408,1.408,0,0,0,3.75,8.938Zm-1.406.469a.469.469,0,1,1,.469-.469A.469.469,0,0,1,2.344,9.406Z" fill="#fff"/>
      <path id="Path_14626" data-name="Path 14626" d="M15.063,8.938a1.406,1.406,0,1,0-1.406,1.406A1.408,1.408,0,0,0,15.063,8.938Zm-1.406.469a.469.469,0,1,1,.469-.469A.469.469,0,0,1,13.656,9.406Z" fill="#fff"/>
      <path id="Path_14627" data-name="Path 14627" d="M13.656,10.344a2.342,2.342,0,0,0-1.874.938H9.326a1.413,1.413,0,0,0-.857-.857V8.469h1.875V6.125a2.344,2.344,0,1,0-4.688,0V8.469H7.531v1.956a1.413,1.413,0,0,0-.857.857H4.217A2.343,2.343,0,0,0,0,12.688v2.344H4.688V12.688a2.345,2.345,0,0,0-.047-.469H6.674a1.406,1.406,0,0,0,2.651,0H11.36a2.345,2.345,0,0,0-.047.469v2.344H16V12.688a2.346,2.346,0,0,0-2.344-2.344ZM6.594,6.125a1.406,1.406,0,1,1,2.813,0V7.531H6.594ZM3.75,14.094H.938V12.688a1.406,1.406,0,1,1,2.813,0ZM8,12.219a.469.469,0,1,1,.469-.469A.469.469,0,0,1,8,12.219Zm7.063,1.875H12.25V12.688a1.406,1.406,0,1,1,2.813,0Z" fill="#fff"/>
    </g>
  </g>
</svg>
