<svg xmlns="http://www.w3.org/2000/svg" xmlns:xlink="http://www.w3.org/1999/xlink" width="24" height="24" viewBox="0 0 24 24">
  <defs>
    <clipPath id="clip-path">
      <rect id="Rectangle_22143" data-name="Rectangle 22143" width="24" height="24" transform="translate(-370 -7713)" fill="#fff" opacity="0.38"/>
    </clipPath>
  </defs>
  <g id="Analytics_Solid" transform="translate(370 7713)" clip-path="url(#clip-path)">
    <g id="Analytic-graph_copy_2" data-name="Analytic-graph copy 2" transform="translate(-370.8 -7714)">
      <path id="Path_14447" data-name="Path 14447" d="M24.4,21.6v2.8H15.6v-2l1.6-1.6,2,2,1.2-1.2,1.2,1.2,2-2Z" fill="#00a5ab"/>
      <path id="Path_14448" data-name="Path 14448" d="M24.4,15.6v6l-.8-.8-2,2-1.2-1.2-1.2,1.2-2-2-1.6,1.6v-2L18,18l2,2Z" fill="#ff5a21"/>
      <path id="Path_14449" data-name="Path 14449" d="M17.6,21.2v3.2h-2v-2l1.6-1.6Z" fill="#007d93"/>
      <path id="Path_14450" data-name="Path 14450" d="M19,19l-1.4,1.4v.8l-.4-.4-1.6,1.6v-2L18,18Z" fill="#fc3c1d"/>
      <path id="Path_14451" data-name="Path 14451" d="M24.4,15.6v2L22,20l-1-1Z" fill="#fc3c1d"/>
      <path id="Path_14452" data-name="Path 14452" d="M6,16.4H7.6v6.4H6Z" fill="#00a5ab"/>
      <path id="Path_14453" data-name="Path 14453" d="M2.8,18.8H4.4v4H2.8Z" fill="#ffd648"/>
      <path id="Path_14454" data-name="Path 14454" d="M9.2,14.8h1.6v8H9.2Z" fill="#ff5a21"/>
      <path id="Path_14455" data-name="Path 14455" d="M6,16.4h.8v6.4H6Z" fill="#007d93"/>
      <path id="Path_14456" data-name="Path 14456" d="M2.8,18.8h.8v4H2.8Z" fill="#ffb300"/>
      <path id="Path_14457" data-name="Path 14457" d="M9.2,14.8H10v8H9.2Z" fill="#fc3c1d"/>
      <path id="Path_14458" data-name="Path 14458" d="M12.783,3.617A5.149,5.149,0,0,1,13.6,6.4H8.4V1.2a5.216,5.216,0,0,1,4.383,2.417Z" fill="#ff5a21"/>
      <path id="Path_14459" data-name="Path 14459" d="M10.264,11.864A5.2,5.2,0,1,1,6.4,3.2V8.4h5.2A5.175,5.175,0,0,1,10.264,11.864Z" fill="#ffd648"/>
      <path id="Path_14460" data-name="Path 14460" d="M10.4,1.6V6.4h-2V1.2a5.122,5.122,0,0,1,2,.4Z" fill="#fc3c1d"/>
      <path id="Path_14461" data-name="Path 14461" d="M7.4,13.5a5.129,5.129,0,0,1-1,.1,5.2,5.2,0,0,1,0-10.4v.4a5.2,5.2,0,0,0,1,9.9Z" fill="#ffb300"/>
      <path id="Path_14462" data-name="Path 14462" d="M11.883,5.083l-.566-.566,2-2A.4.4,0,0,1,13.6,2.4h3.2v.8H13.766Z" fill="#00a5ab"/>
      <path id="Path_14463" data-name="Path 14463" d="M16.8,12.8h-6a.4.4,0,0,1-.283-.117l-2-2,.566-.566L10.966,12H16.8Z" fill="#00a5ab"/>
      <path id="Path_14464" data-name="Path 14464" d="M12.8,24.8H1.2a.4.4,0,0,1-.4-.4v-10h.8V24H12.8Z" fill="#00a5ab"/>
      <path id="Path_14465" data-name="Path 14465" d="M17.6,2.4h3.2v.8H17.6Z" fill="#ff5a21"/>
      <path id="Path_14466" data-name="Path 14466" d="M17.6,4h3.2v.8H17.6Z" fill="#ff5a21"/>
      <path id="Path_14467" data-name="Path 14467" d="M17.6,5.6h3.2v.8H17.6Z" fill="#ff5a21"/>
      <path id="Path_14468" data-name="Path 14468" d="M21.6,4h3.2v.8H21.6Z" fill="#ff5a21"/>
      <path id="Path_14469" data-name="Path 14469" d="M21.6,5.6h3.2v.8H21.6Z" fill="#ff5a21"/>
      <g id="Group_15354" data-name="Group 15354">
        <path id="Path_14470" data-name="Path 14470" d="M17.6,12h3.2v.8H17.6Z" fill="#ffd648"/>
        <path id="Path_14471" data-name="Path 14471" d="M21.6,12h3.2v.8H21.6Z" fill="#ffd648"/>
        <path id="Path_14472" data-name="Path 14472" d="M17.6,10.4h3.2v.8H17.6Z" fill="#ffd648"/>
        <path id="Path_14473" data-name="Path 14473" d="M21.6,10.4h3.2v.8H21.6Z" fill="#ffd648"/>
        <path id="Path_14474" data-name="Path 14474" d="M17.6,8.8h3.2v.8H17.6Z" fill="#ffd648"/>
        <path id="Path_14475" data-name="Path 14475" d="M21.6,8.8h3.2v.8H21.6Z" fill="#ffd648"/>
      </g>
      <path id="Path_14476" data-name="Path 14476" d="M24.8,24.8H14a.4.4,0,0,1-.4-.4v-10h.8V24H24.8Z" fill="#00a5ab"/>
    </g>
  </g>
</svg>
