<svg xmlns="http://www.w3.org/2000/svg" xmlns:xlink="http://www.w3.org/1999/xlink" width="24" height="24" viewBox="0 0 24 24">
  <defs>
    <clipPath id="clip-path">
      <rect id="Rectangle_22162" data-name="Rectangle 22162" width="24" height="24" transform="translate(-370 -7308)" fill="#fff"/>
    </clipPath>
  </defs>
  <g id="Business_Setup_Solid" transform="translate(370 7308)" clip-path="url(#clip-path)">
    <g id="suitcase_3281289" transform="translate(-370 -7308)">
      <g id="Group_15390" data-name="Group 15390">
        <path id="Path_14608" data-name="Path 14608" d="M15.789,2.569a4.722,4.722,0,0,0-1.042-.556,7.673,7.673,0,0,0-5.494,0,4.722,4.722,0,0,0-1.042.556A.789.789,0,0,0,7.9,3.2V4.434l.789.422.789-.422V3.643A5.57,5.57,0,0,1,12,3.082a5.57,5.57,0,0,1,2.522.561v.791l.789.422.789-.422V3.2a.788.788,0,0,0-.31-.627Z" fill="#e8834d"/>
        <g id="Group_15389" data-name="Group 15389">
          <path id="Path_14609" data-name="Path 14609" d="M7.9,4.434V5.3l.789.422L9.478,5.3V4.434Z" fill="#d66e41"/>
          <path id="Path_14610" data-name="Path 14610" d="M16.1,4.434H14.522V5.3l.789.422L16.1,5.3Z" fill="#d66e41"/>
        </g>
        <path id="Path_14611" data-name="Path 14611" d="M.621,13.982V20.99A1.506,1.506,0,0,0,2.127,22.5H21.873a1.506,1.506,0,0,0,1.506-1.506V13.982Z" fill="#365e7d"/>
        <path id="Path_14612" data-name="Path 14612" d="M.621,13.111v.871C1.872,14.976,5.18,16.9,12,16.9s10.128-1.929,11.379-2.922v-.871H.621Z" fill="#2b4d66"/>
        <path id="Path_14613" data-name="Path 14613" d="M.556,12.61c1.2.976,4.5,2.975,11.444,2.975s10.245-2,11.444-2.975A2.516,2.516,0,0,0,24,11.019V6.811A1.506,1.506,0,0,0,22.494,5.3H1.506A1.506,1.506,0,0,0,0,6.811v4.208a2.516,2.516,0,0,0,.556,1.59Z" fill="#407093"/>
        <path id="Path_14614" data-name="Path 14614" d="M23.444,12.188c-1.2.976-4.5,2.975-11.444,2.975s-10.245-2-11.444-2.975A1.506,1.506,0,0,1,0,11.019v.871a1.506,1.506,0,0,0,.556,1.168c1.2.976,4.5,2.975,11.444,2.975s10.245-2,11.444-2.975A1.506,1.506,0,0,0,24,11.89v-.871A1.506,1.506,0,0,1,23.444,12.188Z" fill="#365e7d"/>
        <path id="Path_14615" data-name="Path 14615" d="M12,17.483c.779,0,1.411-.579,1.411-1.833v-.855a.5.5,0,0,0-.5-.5H11.091a.5.5,0,0,0-.5.5v.856C10.589,16.9,11.221,17.483,12,17.483Z" fill="#ffe27a"/>
        <path id="Path_14616" data-name="Path 14616" d="M12,17.061a1.411,1.411,0,0,1-1.411-1.411v.871a1.411,1.411,0,1,0,2.822,0V15.65A1.411,1.411,0,0,1,12,17.061Z" fill="#f9cf58"/>
      </g>
    </g>
  </g>
</svg>
