<svg xmlns="http://www.w3.org/2000/svg" xmlns:xlink="http://www.w3.org/1999/xlink" width="16" height="16" viewBox="0 0 16 16">
  <defs>
    <clipPath id="clip-path">
      <rect id="Rectangle_22161" data-name="Rectangle 22161" width="16" height="16" transform="translate(-471 -7304)" fill="#fff"/>
    </clipPath>
  </defs>
  <g id="Business_Setup_Lined" data-name="Business Setup Lined" transform="translate(471 7304)" clip-path="url(#clip-path)">
    <g id="suitcase_3281127" transform="translate(-471 -7304)">
      <path id="Path_14607" data-name="Path 14607" d="M14.79,3.433h-3.9V2.3a.75.75,0,0,0-.293-.593,3.261,3.261,0,0,0-.729-.391,4.588,4.588,0,0,0-.58-.188.235.235,0,1,0-.116.455,4.124,4.124,0,0,1,.52.169,2.851,2.851,0,0,1,.62.329.277.277,0,0,1,.108.219v1.13H9.867V2.592a.235.235,0,0,0-.128-.209A3.856,3.856,0,0,0,8,1.994a3.856,3.856,0,0,0-1.739.389.235.235,0,0,0-.128.209v.841H5.582V2.3a.277.277,0,0,1,.109-.219,2.848,2.848,0,0,1,.62-.329A4.575,4.575,0,0,1,8,1.443c.1,0,.2,0,.3.009A.235.235,0,0,0,8.329.983C8.22.977,8.109.973,8,.973a5.049,5.049,0,0,0-1.865.346,3.26,3.26,0,0,0-.729.391.749.749,0,0,0-.293.593v1.13H1.21A1.211,1.211,0,0,0,0,4.642V7.929a1.2,1.2,0,0,0,.4.9v4.988a1.211,1.211,0,0,0,1.21,1.21H10.89a.235.235,0,0,0,0-.47H1.611a.741.741,0,0,1-.74-.74V9.178a7.857,7.857,0,0,0,1.411.727.235.235,0,1,0,.175-.436A6.611,6.611,0,0,1,.743,8.5.737.737,0,0,1,.47,7.929V4.642a.741.741,0,0,1,.74-.74H14.79a.741.741,0,0,1,.74.74V7.929a.737.737,0,0,1-.273.574,6.894,6.894,0,0,1-2,1.075,14.275,14.275,0,0,1-4.113.767V9.809a.56.56,0,0,0-.56-.56H7.412a.56.56,0,0,0-.56.56v.537A15.3,15.3,0,0,1,3.425,9.8a.235.235,0,1,0-.131.451,15.8,15.8,0,0,0,3.558.563v.11a1.148,1.148,0,0,0,2.3,0v-.11a11.779,11.779,0,0,0,5.981-1.636v4.638a.741.741,0,0,1-.74.74H11.829a.235.235,0,1,0,0,.47h2.559a1.211,1.211,0,0,0,1.21-1.21V8.829a1.2,1.2,0,0,0,.4-.9V4.642a1.211,1.211,0,0,0-1.21-1.21ZM6.6,2.741a3.665,3.665,0,0,1,2.795,0v.692H6.6V2.741Zm2.076,8.185a.678.678,0,0,1-1.356,0V9.809a.09.09,0,0,1,.09-.09H8.588a.09.09,0,0,1,.09.09Z" fill="#fff"/>
    </g>
  </g>
</svg>
