<svg xmlns="http://www.w3.org/2000/svg" xmlns:xlink="http://www.w3.org/1999/xlink" width="24" height="24" viewBox="0 0 24 24">
  <defs>
    <clipPath id="clip-path">
      <rect id="Rectangle_22166" data-name="Rectangle 22166" width="24" height="24" transform="translate(-370 -7218)" fill="#fff"/>
    </clipPath>
  </defs>
  <g id="Email_Solid" transform="translate(370 7218)" clip-path="url(#clip-path)">
    <g id="email_542740" transform="translate(-370 -7218)">
      <path id="Path_14618" data-name="Path 14618" d="M8.944,11.508,1.631,4.167a.722.722,0,0,0-.759-.155,1.559,1.559,0,0,0-.647.731A1.927,1.927,0,0,0,0,5.672V18.328a1.927,1.927,0,0,0,.225.928,1.793,1.793,0,0,0,.436.591c.924.739,1.259-.33,8.283-7.355A.68.68,0,0,0,8.944,11.508Z" fill="#c5c9f7"/>
      <path id="Path_14619" data-name="Path 14619" d="M16.041,11.508a.7.7,0,0,0-.984,0l-2.6,2.517a.749.749,0,0,1-1.012,0l-2.5-2.517a.68.68,0,0,0-.984,0c-.759.759-6.919,6.933-7.734,7.748a1.793,1.793,0,0,0,.436.591.756.756,0,0,0,.225.141,2.076,2.076,0,0,0,1.223.45H21.891a2.076,2.076,0,0,0,1.223-.45,1.53,1.53,0,0,0,.661-.731C22.959,18.441,16.8,12.267,16.041,11.508Z" fill="#e1e4fb"/>
      <path id="Path_14620" data-name="Path 14620" d="M23.775,4.744c-.276-.632-.921-1.062-1.406-.577l-7.313,7.341a.68.68,0,0,0,0,.984c.752.752,6.539,6.564,7.313,7.341.46.511,1.13.056,1.406-.577A1.927,1.927,0,0,0,24,18.328V5.672A1.927,1.927,0,0,0,23.775,4.744Z" fill="#a8aff1"/>
      <path id="Path_14621" data-name="Path 14621" d="M23.775,19.256a1.53,1.53,0,0,1-.661.731,2.076,2.076,0,0,1-1.223.45H11.953V14.222a.763.763,0,0,0,.506-.2l2.6-2.517a.7.7,0,0,1,.984,0C16.8,12.267,22.959,18.441,23.775,19.256Z" fill="#c5c9f7"/>
      <path id="Path_14622" data-name="Path 14622" d="M23.128,4.012A.014.014,0,0,0,23.114,4a2.061,2.061,0,0,0-1.223-.436H2.109A2.061,2.061,0,0,0,.886,4a.014.014,0,0,0-.014.014,1.542,1.542,0,0,0-.647.731c9.773,9.787,7.791,7.8,10.238,10.266a2.105,2.105,0,0,0,2.981,0c2.419-2.433.445-.366,10.331-10.266A1.543,1.543,0,0,0,23.128,4.012Z" fill="#18a7fc"/>
      <path id="Path_14623" data-name="Path 14623" d="M23.775,4.744c-9.886,9.9-7.913,7.833-10.331,10.266a2.018,2.018,0,0,1-1.491.619V3.563h9.938A2.061,2.061,0,0,1,23.114,4a.014.014,0,0,1,.014.014A1.542,1.542,0,0,1,23.775,4.744Z" fill="#1689fc"/>
    </g>
  </g>
</svg>
