<svg xmlns="http://www.w3.org/2000/svg" xmlns:xlink="http://www.w3.org/1999/xlink" width="16" height="16" viewBox="0 0 16 16">
  <defs>
    <clipPath id="clip-path">
      <rect id="Rectangle_22140" data-name="Rectangle 22140" width="16" height="16" transform="translate(-471 -7754)" fill="#fff" opacity="0.38"/>
    </clipPath>
  </defs>
  <g id="Home_Lined" data-name="Home Lined" transform="translate(471 7754)" clip-path="url(#clip-path)">
    <path id="home_1946488" d="M15.584,6.959h0L9.056.431a1.473,1.473,0,0,0-2.083,0L.45,6.955l-.007.007a1.472,1.472,0,0,0,.98,2.51l.046,0h.26v4.8A1.726,1.726,0,0,0,3.453,16H6.006a.469.469,0,0,0,.469-.469V11.766a.787.787,0,0,1,.787-.786H8.768a.787.787,0,0,1,.786.786v3.766a.469.469,0,0,0,.469.469h2.553A1.726,1.726,0,0,0,14.3,14.276v-4.8h.241a1.473,1.473,0,0,0,1.042-2.514Zm-.664,1.419a.532.532,0,0,1-.379.157h-.71A.469.469,0,0,0,13.363,9v5.272a.787.787,0,0,1-.787.786H10.492v-3.3a1.726,1.726,0,0,0-1.724-1.724H7.262a1.726,1.726,0,0,0-1.724,1.724v3.3H3.453a.787.787,0,0,1-.787-.786V9A.469.469,0,0,0,2.2,8.536h-.72a.535.535,0,0,1-.369-.913h0L7.636,1.094a.535.535,0,0,1,.757,0l6.525,6.525,0,0a.537.537,0,0,1,0,.756Zm0,0" transform="translate(-471.015 -7754)" fill="#fff"/>
  </g>
</svg>
