<svg xmlns="http://www.w3.org/2000/svg" xmlns:xlink="http://www.w3.org/1999/xlink" width="16" height="16" viewBox="0 0 16 16">
  <defs>
    <clipPath id="clip-path">
      <rect id="Rectangle_22159" data-name="Rectangle 22159" width="16" height="16" transform="translate(-471 -7349)" fill="#fff"/>
    </clipPath>
  </defs>
  <g id="Orders_Lined" data-name="Orders Lined" transform="translate(471 7349)" clip-path="url(#clip-path)">
    <g id="checklist_2666469" transform="translate(-471 -7349)">
      <g id="Group_15372" data-name="Group 15372">
        <path id="Path_14576" data-name="Path 14576" d="M5.333,4.275a.234.234,0,0,0-.328.05l-.464.63-.159-.218A.234.234,0,1,0,4,5.013l.274.376a.327.327,0,0,0,.263.134h0A.327.327,0,0,0,4.8,5.39l.58-.788a.235.235,0,0,0-.05-.328Z" fill="#fff"/>
        <path id="Path_14577" data-name="Path 14577" d="M5.333,8.12a.234.234,0,0,0-.328.05l-.464.63-.159-.218A.234.234,0,1,0,4,8.858l.274.376a.327.327,0,0,0,.263.134h0A.327.327,0,0,0,4.8,9.235l.58-.788a.234.234,0,0,0-.05-.328Z" fill="#fff"/>
        <path id="Path_14578" data-name="Path 14578" d="M5.333,11.8a.234.234,0,0,0-.328.05l-.464.63-.159-.218A.234.234,0,1,0,4,12.538l.274.376a.327.327,0,0,0,.263.134h0a.327.327,0,0,0,.262-.133l.58-.788a.234.234,0,0,0-.05-.328Z" fill="#fff"/>
        <path id="Path_14579" data-name="Path 14579" d="M7.126,4.621h2.9a.234.234,0,0,0,0-.469h-2.9a.234.234,0,0,0,0,.469Z" fill="#fff"/>
        <path id="Path_14580" data-name="Path 14580" d="M7.126,5.6H8.575a.234.234,0,0,0,0-.469H7.126a.234.234,0,0,0,0,.469Z" fill="#fff"/>
        <path id="Path_14581" data-name="Path 14581" d="M7.126,8.384H9.07a.234.234,0,0,0,0-.469H7.126a.234.234,0,0,0,0,.469Z" fill="#fff"/>
        <path id="Path_14582" data-name="Path 14582" d="M8.575,9.363a.234.234,0,0,0,0-.469H7.126a.234.234,0,0,0,0,.469Z" fill="#fff"/>
        <path id="Path_14583" data-name="Path 14583" d="M5.6,3.376H3.79a.6.6,0,0,0-.6.6V5.779a.6.6,0,0,0,.6.6H5.6a.6.6,0,0,0,.6-.6V3.973a.6.6,0,0,0-.6-.6Zm.128,2.4a.128.128,0,0,1-.128.128H3.79a.128.128,0,0,1-.128-.128V3.973a.128.128,0,0,1,.128-.128H5.6a.128.128,0,0,1,.128.128Z" fill="#fff"/>
        <path id="Path_14584" data-name="Path 14584" d="M5.6,7.139H3.79a.6.6,0,0,0-.6.6V9.542a.6.6,0,0,0,.6.6H5.6a.6.6,0,0,0,.6-.6V7.736A.6.6,0,0,0,5.6,7.139Zm.128,2.4A.128.128,0,0,1,5.6,9.67H3.79a.128.128,0,0,1-.128-.128V7.736a.128.128,0,0,1,.128-.128H5.6a.128.128,0,0,1,.128.128Z" fill="#fff"/>
        <path id="Path_14585" data-name="Path 14585" d="M5.6,10.9H3.79a.6.6,0,0,0-.6.6V13.3a.6.6,0,0,0,.6.6H5.6a.6.6,0,0,0,.6-.6V11.5A.6.6,0,0,0,5.6,10.9Zm.128,2.4a.128.128,0,0,1-.128.128H3.79a.128.128,0,0,1-.128-.128V11.5a.128.128,0,0,1,.128-.128H5.6a.128.128,0,0,1,.128.128Z" fill="#fff"/>
        <path id="Path_14586" data-name="Path 14586" d="M14.539,4.01l-.372-.236a.856.856,0,0,0-1.181.265l-.341.539-.474.749-.536.847V2.655a.44.44,0,0,0-.439-.439H9.516V1.747h2.249a.34.34,0,0,1,.339.339v2.03a.234.234,0,0,0,.469,0V2.086a.809.809,0,0,0-.808-.808h-2.3a.64.64,0,0,0-.59-.4H8.271V.646A.647.647,0,0,0,7.625,0H6.011a.647.647,0,0,0-.646.646V.882H4.759a.64.64,0,0,0-.59.4h-2.3a.809.809,0,0,0-.808.808V15.192A.809.809,0,0,0,1.871,16h9.894a.809.809,0,0,0,.808-.808V9.935a.234.234,0,0,0-.469,0v5.256a.34.34,0,0,1-.339.339H1.871a.34.34,0,0,1-.339-.339V2.086a.34.34,0,0,1,.339-.339H4.12v.469H2.44A.44.44,0,0,0,2,2.655V14.623a.44.44,0,0,0,.439.439H11.2a.44.44,0,0,0,.439-.439V10.2l2.354-3.72h0l.474-.748.341-.539a.857.857,0,0,0-.265-1.181Zm-.915.11a.384.384,0,0,1,.292.051l.372.236a.387.387,0,0,1,.12.534l-.216.341-1.026-.65.216-.341a.384.384,0,0,1,.242-.171Zm-4.44,9.075a1.578,1.578,0,0,1-.148.2,1.648,1.648,0,0,0-.249-.267l4.368-6.9.313.2Zm-1.6,1.4,0,0h0l.331-1.375a1.18,1.18,0,0,1,.774.49c-1.241,1-1.083.871-1.1.887Zm5.332-9.565,1.026.65-.223.352-1.026-.65Zm-8.326-3.5s0-.006,0-.009,0,0,0,0a.17.17,0,0,1,.17-.164h.672a.4.4,0,0,0,.4-.4v-.3A.178.178,0,0,1,6.011.469H7.625A.178.178,0,0,1,7.8.646v.3a.4.4,0,0,0,.4.4h.672a.17.17,0,0,1,.17.164s0,0,0,0,0,.006,0,.009v.689H4.589ZM2.47,2.684h8.7V6.915L8.713,10.792a.234.234,0,1,0,.4.251l3.333-5.267.317.2-4.368,6.9a1.646,1.646,0,0,0-.348-.111,1.585,1.585,0,0,1,.116-.219l.364-.576a.234.234,0,1,0-.4-.251l-.364.576a2.045,2.045,0,0,0-.261.616h0l-.378,1.567a.487.487,0,0,0-.014.116H2.47Zm8.7,11.909H8.33l.8-.648a2.045,2.045,0,0,0,.445-.5l1.586-2.506Z" fill="#fff"/>
      </g>
    </g>
  </g>
</svg>
