<svg xmlns="http://www.w3.org/2000/svg" xmlns:xlink="http://www.w3.org/1999/xlink" width="24" height="24" viewBox="0 0 24 24">
  <defs>
    <clipPath id="clip-path">
      <rect id="Rectangle_22160" data-name="Rectangle 22160" width="24" height="24" transform="translate(-370 -7353)" fill="#fff"/>
    </clipPath>
  </defs>
  <g id="Orers__Solid" transform="translate(370 7353)" clip-path="url(#clip-path)">
    <g id="checklist_2666505" transform="translate(-370 -7353)">
      <g id="Group_15388" data-name="Group 15388">
        <g id="Group_15385" data-name="Group 15385">
          <g id="Group_15373" data-name="Group 15373">
            <path id="Path_14587" data-name="Path 14587" d="M15.8,23.113V2.861a.887.887,0,0,0-.887-.887H2.529a.887.887,0,0,0-.887.887V23.113A.887.887,0,0,0,2.529,24H14.911a.887.887,0,0,0,.887-.887Z" fill="#ffc250"/>
            <path id="Path_14588" data-name="Path 14588" d="M17.818,1.975H14.85a.887.887,0,0,1,.887.887V23.113A.887.887,0,0,1,14.85,24h2.967a.887.887,0,0,0,.887-.887V2.861a.887.887,0,0,0-.887-.887Z" fill="#eab14d"/>
            <path id="Path_14589" data-name="Path 14589" d="M3.092,22.234V3.741a.317.317,0,0,1,.317-.317h13.53a.317.317,0,0,1,.317.317V22.234a.317.317,0,0,1-.317.317H3.409a.317.317,0,0,1-.317-.317Z" fill="#f5f5f5"/>
            <path id="Path_14590" data-name="Path 14590" d="M16.938,3.424H13.971a.317.317,0,0,1,.317.317V22.234a.317.317,0,0,1-.317.317h2.967a.317.317,0,0,0,.317-.317V3.741A.317.317,0,0,0,16.938,3.424Z" fill="#eaeaea"/>
            <path id="Path_14591" data-name="Path 14591" d="M12.057,1.1V.637A.637.637,0,0,0,11.42,0H8.927A.637.637,0,0,0,8.29.637V1.1a.26.26,0,0,1-.26.26H6.992a.625.625,0,0,0-.625.625V3.424H13.98V1.989a.625.625,0,0,0-.625-.625H12.317a.26.26,0,0,1-.26-.26Z" fill="#c2d0da"/>
          </g>
          <g id="Group_15378" data-name="Group 15378">
            <g id="Group_15374" data-name="Group 15374">
              <path id="Path_14592" data-name="Path 14592" d="M4.935,8.568V5.778a.56.56,0,0,1,.56-.56H8.286a.56.56,0,0,1,.56.56V8.568a.56.56,0,0,1-.56.56H5.495A.56.56,0,0,1,4.935,8.568Z" fill="#66b49d"/>
              <path id="Path_14593" data-name="Path 14593" d="M4.935,14.383V11.592a.56.56,0,0,1,.56-.56H8.286a.56.56,0,0,1,.56.56v2.791a.56.56,0,0,1-.56.56H5.495A.56.56,0,0,1,4.935,14.383Z" fill="#66b49d"/>
              <path id="Path_14594" data-name="Path 14594" d="M4.935,20.2V17.406a.56.56,0,0,1,.56-.56H8.286a.56.56,0,0,1,.56.56V20.2a.56.56,0,0,1-.56.56H5.495A.56.56,0,0,1,4.935,20.2Z" fill="#66b49d"/>
            </g>
            <g id="Group_15375" data-name="Group 15375">
              <path id="Path_14595" data-name="Path 14595" d="M6.654,8.172h0a.505.505,0,0,1-.406-.207l-.423-.581a.362.362,0,1,1,.586-.426l.245.337.717-.974a.362.362,0,1,1,.583.429l-.9,1.217A.5.5,0,0,1,6.654,8.172Z" fill="#f6f9f9"/>
            </g>
            <g id="Group_15376" data-name="Group 15376">
              <path id="Path_14596" data-name="Path 14596" d="M6.654,14.113h0a.505.505,0,0,1-.406-.207l-.423-.581A.362.362,0,1,1,6.41,12.9l.245.337.717-.974a.362.362,0,1,1,.583.429l-.9,1.217a.5.5,0,0,1-.405.2Z" fill="#f6f9f9"/>
            </g>
            <g id="Group_15377" data-name="Group 15377">
              <path id="Path_14597" data-name="Path 14597" d="M6.654,19.8h0a.505.505,0,0,1-.406-.207l-.423-.581a.362.362,0,1,1,.586-.426l.245.337.717-.974a.362.362,0,1,1,.583.429l-.9,1.217a.505.505,0,0,1-.405.2Z" fill="#f6f9f9"/>
            </g>
          </g>
          <g id="Group_15381" data-name="Group 15381">
            <g id="Group_15379" data-name="Group 15379">
              <path id="Path_14598" data-name="Path 14598" d="M15.126,6.778H10.649a.362.362,0,0,1,0-.724h4.477a.362.362,0,1,1,0,.724Z" fill="#ddeafb"/>
            </g>
            <g id="Group_15380" data-name="Group 15380">
              <path id="Path_14599" data-name="Path 14599" d="M12.888,8.292H10.649a.362.362,0,1,1,0-.724h2.239a.362.362,0,1,1,0,.724Z" fill="#ddeafb"/>
            </g>
          </g>
          <g id="Group_15384" data-name="Group 15384">
            <g id="Group_15382" data-name="Group 15382">
              <path id="Path_14600" data-name="Path 14600" d="M13.653,12.593h-3a.362.362,0,1,1,0-.724h3a.362.362,0,1,1,0,.724Z" fill="#ddeafb"/>
            </g>
            <g id="Group_15383" data-name="Group 15383">
              <path id="Path_14601" data-name="Path 14601" d="M12.888,14.106H10.649a.362.362,0,1,1,0-.724h2.239a.362.362,0,1,1,0,.724Z" fill="#ddeafb"/>
            </g>
          </g>
        </g>
        <g id="Group_15387" data-name="Group 15387">
          <g id="Group_15386" data-name="Group 15386">
            <path id="Path_14602" data-name="Path 14602" d="M20.949,9.456l-.356-.468-1.331-.843-.511-.081L11.938,18.83a2.8,2.8,0,0,0-.357.843A2.195,2.195,0,0,1,13.526,20.9a2.8,2.8,0,0,0,.61-.683Z" fill="#fc8086"/>
            <path id="Path_14603" data-name="Path 14603" d="M21.911,6.14l-.575-.364a.96.96,0,0,0-1.325.3l-.527.833.168.339,1.6,1.013.43.039.528-.834A.96.96,0,0,0,21.911,6.14Z" fill="#8c9ba6"/>
          </g>
          <path id="Path_14604" data-name="Path 14604" d="M19.534,6.882H20.9v2.6H19.534Z" transform="matrix(0.535, -0.845, 0.845, 0.535, 2.488, 20.884)" fill="#c9e2e7"/>
          <path id="Path_14605" data-name="Path 14605" d="M13.526,20.9l-1.94,1.563A.368.368,0,0,1,11,22.1l.584-2.422A2.195,2.195,0,0,1,13.526,20.9Z" fill="#7c8b96"/>
          <path id="Path_14606" data-name="Path 14606" d="M13.017,20.234,20.159,8.956l-.612-.388L12.406,19.846A2.2,2.2,0,0,1,13.017,20.234Z" fill="#fb636f"/>
        </g>
      </g>
    </g>
  </g>
</svg>
