<svg xmlns="http://www.w3.org/2000/svg" xmlns:xlink="http://www.w3.org/1999/xlink" width="16" height="16" viewBox="0 0 16 16">
  <defs>
    <clipPath id="clip-path">
      <rect id="Rectangle_22175" data-name="Rectangle 22175" width="16" height="16" transform="translate(-471 -7079)" fill="#fff"/>
    </clipPath>
  </defs>
  <g id="Page_line" transform="translate(471 7079)" clip-path="url(#clip-path)">
    <g id="document_888034" transform="translate(-471 -7079)">
      <g id="Group_15410" data-name="Group 15410">
        <g id="Group_15409" data-name="Group 15409">
          <path id="Path_14654" data-name="Path 14654" d="M5.333,11.467H4.8A.267.267,0,0,0,4.8,12h.533a.267.267,0,1,0,0-.533Z" fill="#fff"/>
        </g>
      </g>
      <g id="Group_15412" data-name="Group 15412">
        <g id="Group_15411" data-name="Group 15411">
          <path id="Path_14655" data-name="Path 14655" d="M12.8,11.467H6.4A.267.267,0,1,0,6.4,12h6.4a.267.267,0,0,0,0-.533Z" fill="#fff"/>
        </g>
      </g>
      <g id="Group_15414" data-name="Group 15414">
        <g id="Group_15413" data-name="Group 15413">
          <path id="Path_14656" data-name="Path 14656" d="M5.333,9.867H4.8a.267.267,0,0,0,0,.533h.533a.267.267,0,1,0,0-.533Z" fill="#fff"/>
        </g>
      </g>
      <g id="Group_15416" data-name="Group 15416">
        <g id="Group_15415" data-name="Group 15415">
          <path id="Path_14657" data-name="Path 14657" d="M12.8,9.867H6.4a.267.267,0,1,0,0,.533h6.4a.267.267,0,0,0,0-.533Z" fill="#fff"/>
        </g>
      </g>
      <g id="Group_15418" data-name="Group 15418">
        <g id="Group_15417" data-name="Group 15417">
          <path id="Path_14658" data-name="Path 14658" d="M5.333,8.267H4.8a.267.267,0,0,0,0,.533h.533a.267.267,0,1,0,0-.533Z" fill="#fff"/>
        </g>
      </g>
      <g id="Group_15420" data-name="Group 15420">
        <g id="Group_15419" data-name="Group 15419">
          <path id="Path_14659" data-name="Path 14659" d="M12.8,8.267H6.4a.267.267,0,1,0,0,.533h6.4a.267.267,0,0,0,0-.533Z" fill="#fff"/>
        </g>
      </g>
      <g id="Group_15422" data-name="Group 15422">
        <g id="Group_15421" data-name="Group 15421">
          <path id="Path_14660" data-name="Path 14660" d="M5.333,6.667H4.8a.267.267,0,0,0,0,.533h.533a.267.267,0,1,0,0-.533Z" fill="#fff"/>
        </g>
      </g>
      <g id="Group_15424" data-name="Group 15424">
        <g id="Group_15423" data-name="Group 15423">
          <path id="Path_14661" data-name="Path 14661" d="M12.8,6.667H6.4a.267.267,0,1,0,0,.533h6.4a.267.267,0,0,0,0-.533Z" fill="#fff"/>
        </g>
      </g>
      <g id="Group_15426" data-name="Group 15426">
        <g id="Group_15425" data-name="Group 15425">
          <path id="Path_14662" data-name="Path 14662" d="M5.333,5.067H4.8a.267.267,0,0,0,0,.533h.533a.267.267,0,1,0,0-.533Z" fill="#fff"/>
        </g>
      </g>
      <g id="Group_15428" data-name="Group 15428">
        <g id="Group_15427" data-name="Group 15427">
          <path id="Path_14663" data-name="Path 14663" d="M12.8,5.067H6.4a.267.267,0,1,0,0,.533h6.4a.267.267,0,0,0,0-.533Z" fill="#fff"/>
        </g>
      </g>
      <g id="Group_15430" data-name="Group 15430">
        <g id="Group_15429" data-name="Group 15429">
          <path id="Path_14664" data-name="Path 14664" d="M14.663,3.983a.252.252,0,0,0-.014-.069c0-.009-.005-.017-.009-.025a.267.267,0,0,0-.053-.078L10.854.078a.267.267,0,0,0-.078-.053L10.751.016A.266.266,0,0,0,10.682,0s-.01,0-.015,0H3.2a.267.267,0,0,0-.267.267v.8H1.6a.267.267,0,0,0-.267.267v14.4A.267.267,0,0,0,1.6,16H12.8a.267.267,0,0,0,.267-.267V14.4H14.4a.267.267,0,0,0,.267-.267V4C14.667,3.994,14.664,3.989,14.663,3.983ZM10.933.91l2.823,2.823H10.933Zm1.6,14.556H1.867V1.6H2.933V14.133A.267.267,0,0,0,3.2,14.4h9.333Zm1.6-1.6H3.467V.533H10.4V4a.267.267,0,0,0,.267.267h3.467Z" fill="#fff"/>
        </g>
      </g>
      <g id="Group_15432" data-name="Group 15432">
        <g id="Group_15431" data-name="Group 15431">
          <path id="Path_14665" data-name="Path 14665" d="M6.4,2.4H4.8a.267.267,0,0,0-.267.267v1.6a.267.267,0,0,0,.267.267H6.4a.267.267,0,0,0,.267-.267v-1.6A.267.267,0,0,0,6.4,2.4ZM6.133,4H5.067V2.933H6.133Z" fill="#fff"/>
        </g>
      </g>
    </g>
  </g>
</svg>
