<svg xmlns="http://www.w3.org/2000/svg" xmlns:xlink="http://www.w3.org/1999/xlink" width="16" height="16" viewBox="0 0 16 16">
  <defs>
    <clipPath id="clip-path">
      <rect id="Rectangle_22177" data-name="Rectangle 22177" width="16" height="16" transform="translate(-471 -7034)" fill="#fff"/>
    </clipPath>
  </defs>
  <g id="Shipping_lined" transform="translate(471 7034)" clip-path="url(#clip-path)">
    <path id="fast-delivery_1670965" d="M6.37,7.112H11.25a1.8,1.8,0,0,1,3.4,0h.408V4.767a.533.533,0,0,0-.531-.531h-3.6a.469.469,0,0,1-.469-.469V.953H2.433v.563h.862a.469.469,0,0,1,0,.938H2.433v.907H4.683a.469.469,0,0,1,0,.938H2.433V7.112h.533a1.8,1.8,0,0,1,3.4,0ZM1.495,2.454H.932a.469.469,0,0,1,0-.938h.563V.484A.469.469,0,0,1,1.964.016c.718,0,8.6,0,8.6,0a3.492,3.492,0,0,1,3.06,1.74L14.548,3.3A1.471,1.471,0,0,1,16,4.767V7.581a.469.469,0,0,1-.469.469h-.818a1.8,1.8,0,0,1-3.523,0H6.429a1.8,1.8,0,0,1-3.523,0H1.964a.469.469,0,0,1-.469-.469V6.174H.463a.469.469,0,0,1,0-.938H1.495V4.3H.463a.469.469,0,0,1,0-.938H1.495ZM13.56,7.082a.86.86,0,1,1-1.468.608.86.86,0,0,1,1.468-.608Zm-.1-3.784H11.4V1.081a2.553,2.553,0,0,1,1.421,1.155ZM5.276,7.082a.86.86,0,1,1-1.468.608.86.86,0,0,1,1.468-.608Zm0,0" transform="translate(-471 -7030.752)" fill="#fff" fill-rule="evenodd"/>
  </g>
</svg>
