<svg xmlns="http://www.w3.org/2000/svg" xmlns:xlink="http://www.w3.org/1999/xlink" width="16" height="16" viewBox="0 0 16 16">
  <defs>
    <clipPath id="clip-path">
      <rect id="Rectangle_22156" data-name="Rectangle 22156" width="16" height="16" transform="translate(-471 -7394)" fill="#fff"/>
    </clipPath>
  </defs>
  <g id="Stock_Management_Lined" data-name="Stock Management Lined" transform="translate(471 7394)" clip-path="url(#clip-path)">
    <g id="box_1524539" transform="translate(-471.292 -7394.286)">
      <path id="Path_14554" data-name="Path 14554" d="M15.317,7.255H14.51a.8.8,0,0,0-.758-.583h-.861V4.566a.222.222,0,0,0-.108-.2L6.707.861a.224.224,0,0,0-.225,0L.4,4.37a.226.226,0,0,0-.113.2v7.018a.227.227,0,0,0,.113.2L6.483,15.29a.227.227,0,0,0,.113.03.238.238,0,0,0,.117-.03l3.2-1.845v1.334a.96.96,0,0,0,.968.963h4.438a.965.965,0,0,0,.974-.963V8.233a.978.978,0,0,0-.974-.978Zm-1.557-.13a.329.329,0,0,1,.329.329v.022a.329.329,0,0,1-.329.329H12.442a.329.329,0,0,1-.329-.329V7.455a.329.329,0,0,1,.329-.329ZM6.6,1.319,9.122,2.777,3.5,6.024.972,4.566ZM6.381,14.7.745,11.453v-6.5L6.381,8.205ZM6.6,7.813,3.951,6.286,9.575,3.039,12.22,4.566Zm3.315.42v4.689L6.834,14.7v-6.5l5.6-3.247V6.672h.007a.8.8,0,0,0-.758.583h-.807A.973.973,0,0,0,9.911,8.233Zm5.927,6.546a.512.512,0,0,1-.521.509H10.879a.506.506,0,0,1-.515-.509V8.233a.519.519,0,0,1,.515-.524h.816a.776.776,0,0,0,.75.551h1.308a.775.775,0,0,0,.75-.551h.816a.524.524,0,0,1,.521.524Z" fill="#fff"/>
      <path id="Path_14555" data-name="Path 14555" d="M11.14,10.526h.237a.227.227,0,1,0,0-.453h-.009V9.457h.625a.218.218,0,0,0,.216.153.227.227,0,0,0,.228-.226V9.232A.23.23,0,0,0,12.208,9H11.14a.226.226,0,0,0-.225.228V10.3a.225.225,0,0,0,.225.226Z" fill="#fff"/>
      <path id="Path_14556" data-name="Path 14556" d="M11.142,12.6h1.069a.227.227,0,0,0,.227-.227V11.3a.227.227,0,0,0-.227-.227H11.142a.227.227,0,0,0-.227.227v1.069a.227.227,0,0,0,.227.227Zm.227-1.069h.615v.615h-.615Z" fill="#fff"/>
      <path id="Path_14557" data-name="Path 14557" d="M11.377,14.219h-.009V13.6h.613a.228.228,0,1,0,.456,0v-.218a.236.236,0,0,0-.229-.235H11.14a.233.233,0,0,0-.225.235v1.068a.219.219,0,0,0,.225.219h.237a.227.227,0,0,0,0-.453Z" fill="#fff"/>
      <path id="Path_14558" data-name="Path 14558" d="M12.73,9.282l-.664.664-.2-.2a.227.227,0,1,0-.321.321l.362.362a.227.227,0,0,0,.321,0l.824-.824a.227.227,0,0,0-.321-.321Z" fill="#fff"/>
      <path id="Path_14559" data-name="Path 14559" d="M12.73,13.469l-.664.664-.2-.2a.227.227,0,1,0-.321.321l.362.362a.227.227,0,0,0,.321,0l.824-.824a.227.227,0,0,0-.321-.321Z" fill="#fff"/>
      <path id="Path_14560" data-name="Path 14560" d="M15.056,9.555H13.632a.227.227,0,0,0,0,.453h1.424a.227.227,0,0,0,0-.453Z" fill="#fff"/>
      <path id="Path_14561" data-name="Path 14561" d="M15.056,11.628H13.632a.227.227,0,0,0,0,.453h1.424a.227.227,0,0,0,0-.453Z" fill="#fff"/>
      <path id="Path_14562" data-name="Path 14562" d="M15.056,13.7H13.632a.227.227,0,0,0,0,.453h1.424a.227.227,0,0,0,0-.453Z" fill="#fff"/>
    </g>
  </g>
</svg>
