<svg xmlns="http://www.w3.org/2000/svg" xmlns:xlink="http://www.w3.org/1999/xlink" width="16" height="16" viewBox="0 0 16 16">
  <defs>
    <clipPath id="clip-path">
      <rect id="Rectangle_22163" data-name="Rectangle 22163" width="16" height="16" transform="translate(-471 -7259)" fill="#fff"/>
    </clipPath>
  </defs>
  <g id="Tax_Lined" data-name="Tax Lined" transform="translate(471 7259)" clip-path="url(#clip-path)">
    <g id="Page-1" transform="translate(-471 -7259)">
      <g id="_022---Signing-Tax-Document" data-name="022---Signing-Tax-Document">
        <path id="Shape" d="M1.067,16h9.067A1.067,1.067,0,0,0,11.2,14.933V12.451a.267.267,0,1,0-.533,0v2.483a.533.533,0,0,1-.533.533H1.067a.533.533,0,0,1-.533-.533V1.067A.533.533,0,0,1,1.067.533H7.733V2.4A1.067,1.067,0,0,0,8.8,3.467h1.867V4.915a.267.267,0,1,0,.533,0V3.309a.527.527,0,0,0-.155-.376L8.267.155A.527.527,0,0,0,7.891,0H1.067A1.067,1.067,0,0,0,0,1.067V14.933A1.067,1.067,0,0,0,1.067,16Zm7.2-13.6V.91L10.29,2.933H8.8A.533.533,0,0,1,8.267,2.4Z" fill="#fff"/>
        <path id="Shape-2" data-name="Shape" d="M5.067,1.333H1.6a.267.267,0,0,0,0,.533H5.067a.267.267,0,1,0,0-.533Z" fill="#fff"/>
        <path id="Shape-3" data-name="Shape" d="M1.6,3.2H3.2a.267.267,0,1,0,0-.533H1.6a.267.267,0,1,0,0,.533Z" fill="#fff"/>
        <path id="Shape-4" data-name="Shape" d="M1.6,8.533H8A.267.267,0,1,0,8,8H1.6a.267.267,0,0,0,0,.533Z" fill="#fff"/>
        <path id="Shape-5" data-name="Shape" d="M1.6,9.867H6.933a.267.267,0,0,0,0-.533H1.6a.267.267,0,1,0,0,.533Z" fill="#fff"/>
        <path id="Shape-6" data-name="Shape" d="M1.6,11.2H6.133a.267.267,0,0,0,0-.533H1.6a.267.267,0,1,0,0,.533Z" fill="#fff"/>
        <path id="Shape-7" data-name="Shape" d="M1.6,12.533H3.467a.267.267,0,0,0,0-.533H1.6a.267.267,0,0,0,0,.533Z" fill="#fff"/>
        <path id="Shape-8" data-name="Shape" d="M1.6,4.8h.8V6.933a.267.267,0,0,0,.533,0V4.8h.8a.267.267,0,1,0,0-.533H1.6a.267.267,0,0,0,0,.533Z" fill="#fff"/>
        <path id="Shape-9" data-name="Shape" d="M7.585,7.155a.267.267,0,0,0,.37-.074l.578-.868.578.867a.267.267,0,0,0,.444-.3l-.7-1.051.7-1.052a.267.267,0,0,0-.444-.3l-.578.868-.578-.867a.267.267,0,1,0-.444.3l.7,1.051-.7,1.052a.267.267,0,0,0,.073.37Z" fill="#fff"/>
        <path id="Shape-10" data-name="Shape" d="M4.642,6.033l-.352.792a.267.267,0,1,0,.487.217L5.062,6.4H6.138l.285.642a.267.267,0,1,0,.487-.217l-.352-.792,0-.008-.711-1.6a.267.267,0,0,0-.487,0l-.711,1.6ZM5.6,5.19l.3.677H5.3Z" fill="#fff"/>
        <path id="Shape-11" data-name="Shape" d="M1.6,14.4H6.674a.533.533,0,0,0,.259-.07l2.632-1.483a.267.267,0,0,0,.075-.062l4.927-5.962,1.189-1.439a1.068,1.068,0,0,0-.143-1.5L14.79,3.2a1.068,1.068,0,0,0-1.5.143L12.1,4.786l-4.926,5.96a.267.267,0,0,0-.047.085L6.166,13.7a.531.531,0,0,0-.027.17H1.6a.267.267,0,1,0,0,.533Zm5.364-1.405.508.42-.8.451ZM9.4,12.24,7.755,10.88l3.737-4.523,1.645,1.36Zm2.942-6.909,1.645,1.36-.51.616-1.645-1.36ZM13.7,3.686a.533.533,0,0,1,.751-.071l.821.679a.533.533,0,0,1,.072.751L14.325,6.278,12.681,4.919ZM7.509,11.37l1.457,1.2-1,.56-.824-.68Z" fill="#fff"/>
      </g>
    </g>
  </g>
</svg>
