<svg xmlns="http://www.w3.org/2000/svg" xmlns:xlink="http://www.w3.org/1999/xlink" width="24" height="24" viewBox="0 0 24 24">
  <defs>
    <clipPath id="clip-path">
      <rect id="Rectangle_22145" data-name="Rectangle 22145" width="24" height="24" transform="translate(-370 -7668)" fill="#fff" opacity="0.38"/>
    </clipPath>
  </defs>
  <g id="Total_user_Solid" transform="translate(370 7668)" clip-path="url(#clip-path)">
    <g id="group_681392" transform="translate(-370 -7668)">
      <path id="Path_14499" data-name="Path 14499" d="M20.539,12.8H18.1a3.477,3.477,0,0,0-3.472,3.465V20.09a2.094,2.094,0,0,0,2.087,2.083h5.205A2.084,2.084,0,0,0,24,20.09V16.27A3.468,3.468,0,0,0,20.539,12.8Z" fill="#ff504a"/>
      <path id="Path_14500" data-name="Path 14500" d="M19.321,12.8H18.1a3.477,3.477,0,0,0-3.472,3.465V20.09a2.094,2.094,0,0,0,2.087,2.083h2.6V12.8Z" fill="#ff7959"/>
      <path id="Path_14501" data-name="Path 14501" d="M19.321,5.706A3.113,3.113,0,1,0,22.434,8.82,3.117,3.117,0,0,0,19.321,5.706Z" fill="#ff504a"/>
      <path id="Path_14502" data-name="Path 14502" d="M19.321,5.706a3.113,3.113,0,0,0,0,6.227Z" fill="#ff7959"/>
      <path id="Path_14503" data-name="Path 14503" d="M5.908,12.8H3.472A3.477,3.477,0,0,0,0,16.27V20.09a2.094,2.094,0,0,0,2.087,2.083H7.293A2.084,2.084,0,0,0,9.369,20.09V16.27A3.468,3.468,0,0,0,5.908,12.8Z" fill="#2fd163"/>
      <path id="Path_14504" data-name="Path 14504" d="M4.69,12.8H3.472A3.477,3.477,0,0,0,0,16.27V20.09a2.094,2.094,0,0,0,2.087,2.083h2.6Z" fill="#7eff76"/>
      <path id="Path_14505" data-name="Path 14505" d="M14.12,11H9.88a3.465,3.465,0,0,0-3.462,3.462v7.009a.692.692,0,0,0,.692.692h9.778a.692.692,0,0,0,.692-.692V14.466A3.465,3.465,0,0,0,14.12,11Z" fill="#3594c7"/>
      <path id="Path_14506" data-name="Path 14506" d="M12.023,11H9.88a3.465,3.465,0,0,0-3.462,3.462v7.009a.692.692,0,0,0,.692.692h4.912V11Z" fill="#16dcfa"/>
      <path id="Path_14507" data-name="Path 14507" d="M12,1.826a4.163,4.163,0,1,0,4.163,4.163A4.168,4.168,0,0,0,12,1.826Z" fill="#3594c7"/>
      <path id="Path_14508" data-name="Path 14508" d="M12,1.826a4.163,4.163,0,0,0,0,8.326Z" fill="#16dcfa"/>
      <path id="Path_14509" data-name="Path 14509" d="M4.69,5.706A3.113,3.113,0,1,0,7.8,8.82,3.117,3.117,0,0,0,4.69,5.706Z" fill="#2fd163"/>
      <path id="Path_14510" data-name="Path 14510" d="M4.69,5.706a3.113,3.113,0,0,0,0,6.227Z" fill="#7eff76"/>
    </g>
  </g>
</svg>
