<svg xmlns="http://www.w3.org/2000/svg" xmlns:xlink="http://www.w3.org/1999/xlink" width="24" height="24" viewBox="0 0 24 24">
  <defs>
    <clipPath id="clip-path">
      <rect id="Rectangle_22149" data-name="Rectangle 22149" width="24" height="24" transform="translate(-370 -7578)" fill="#fff" opacity="0.38"/>
    </clipPath>
  </defs>
  <g id="Total_Products_Stock_Solid" transform="translate(370 7578)" clip-path="url(#clip-path)">
    <g id="_Group_2" data-name=" Group 2" transform="translate(-370.8 -7578.8)">
      <path id="Path_14520" data-name="Path 14520" d="M24.8,12.709V22.814a1.155,1.155,0,0,1-1.154,1.155H16.795a1.154,1.154,0,0,1-1.154-1.154V12.709a1.154,1.154,0,0,1,1.154-1.154h1.558v0a.858.858,0,0,0,.858.858H21.23a.858.858,0,0,0,.858-.858v0h1.559A1.154,1.154,0,0,1,24.8,12.709Zm-5.954,6.4V17.458H17.2v1.649Z" fill="#f8ec7d"/>
      <path id="Path_14521" data-name="Path 14521" d="M18.353,11.555V11.5a.858.858,0,0,1,.858-.858h2.018a.858.858,0,0,1,.858.858v.056a.858.858,0,0,1-.858.858H19.211a.858.858,0,0,1-.858-.858Z" fill="#6fe3ff"/>
      <path id="Path_14522" data-name="Path 14522" d="M19.566,7.049v3.6h-.354a.858.858,0,0,0-.858.858v.052H16.795a1.154,1.154,0,0,0-1.154,1.154v7.44L10.182,23.3V12.465l9.382-5.417Z" fill="#c16752"/>
      <path id="Path_14523" data-name="Path 14523" d="M10.182,12.465,5.4,9.7l9.382-5.417h0l4.783,2.762Z" fill="#af593c"/>
      <rect id="Rectangle_22158" data-name="Rectangle 22158" width="1.649" height="1.649" transform="translate(17.198 17.458)" fill="#6fe3ff"/>
      <path id="Path_14524" data-name="Path 14524" d="M14.781,4.287,5.4,9.7.8,7.049l9.381-5.417Z" fill="#c16752"/>
      <path id="Path_14525" data-name="Path 14525" d="M10.182,12.465V23.3L.8,17.883V7.049h0L5.4,9.7Z" fill="#e48e66"/>
      <path id="Path_14526" data-name="Path 14526" d="M17.564,16.251H17.2a.35.35,0,0,1-.35-.35V14.252a.35.35,0,0,1,.35-.35h1.648a.35.35,0,0,1,.35.35v.235a.35.35,0,0,1-.681.115h-.968v.949h.017a.35.35,0,0,1,0,.7Z" fill="#6fe3ff"/>
      <path id="Path_14527" data-name="Path 14527" d="M17.564,22.662H17.2a.35.35,0,0,1-.35-.35V20.663a.35.35,0,0,1,.35-.35h1.648a.35.35,0,0,1,.35.35V21a.35.35,0,1,1-.7.013h-.949v.948h.017a.35.35,0,0,1,0,.7Z" fill="#6fe3ff"/>
      <path id="Path_14528" data-name="Path 14528" d="M18.627,16.2a.349.349,0,0,1-.247-.1l-.56-.559a.35.35,0,0,1,.495-.495l.312.312,1.025-1.025a.35.35,0,1,1,.495.495L18.875,16.1A.349.349,0,0,1,18.627,16.2Z" fill="#2561a1"/>
      <path id="Path_14529" data-name="Path 14529" d="M18.627,22.662a.349.349,0,0,1-.247-.1L17.82,22a.35.35,0,1,1,.5-.5l.312.312,1.025-1.025a.35.35,0,1,1,.495.5L18.875,22.56a.349.349,0,0,1-.248.1Z" fill="#2561a1"/>
      <path id="Path_14530" data-name="Path 14530" d="M23.243,15.426h-2.2a.35.35,0,1,1,0-.7h2.2a.35.35,0,0,1,0,.7Z" fill="#e48e66"/>
      <path id="Path_14531" data-name="Path 14531" d="M23.243,18.632h-2.2a.35.35,0,1,1,0-.7h2.2a.35.35,0,1,1,0,.7Z" fill="#e48e66"/>
      <path id="Path_14532" data-name="Path 14532" d="M23.243,21.838h-2.2a.35.35,0,1,1,0-.7h2.2a.35.35,0,0,1,0,.7Z" fill="#e48e66"/>
    </g>
  </g>
</svg>
