<svg id="Group_14720" data-name="Group 14720" xmlns="http://www.w3.org/2000/svg" width="238" height="74" viewBox="0 0 238 74">
  <rect id="Rectangle_22068" data-name="Rectangle 22068" width="238" height="74" rx="37" transform="translate(0 0)" fill="#f2f2f2"/>
  <g id="Group_14697" data-name="Group 14697" transform="translate(46.25 17.575)">
    <path id="Union_5" data-name="Union 5" d="M92.614,8.9a3.175,3.175,0,0,1-.937-2.341,3.135,3.135,0,0,1,.885-2.341A2.891,2.891,0,0,1,94.8,3.226a2.558,2.558,0,0,1,1.978.833,2.953,2.953,0,0,1,.78,2.081c0,.26-.052.52-.052.781H92.978a1.886,1.886,0,0,0,1.977,1.665,2.438,2.438,0,0,0,1.769-.728l.624.937a3.087,3.087,0,0,1-2.393,1.04A3.177,3.177,0,0,1,92.614,8.9Zm.364-2.966h3.278A1.5,1.5,0,0,0,94.695,4.37,1.738,1.738,0,0,0,92.978,5.932ZM62.436,8.845A3.177,3.177,0,0,1,61.5,6.5a3.177,3.177,0,0,1,.937-2.341,3.143,3.143,0,0,1,2.289-.937,3.077,3.077,0,0,1,2.289.989,3.177,3.177,0,0,1,.937,2.341A3.177,3.177,0,0,1,67.015,8.9a3.142,3.142,0,0,1-2.289.937A3.315,3.315,0,0,1,62.436,8.845ZM63.372,5.1a2.008,2.008,0,0,0-.52,1.457,2.093,2.093,0,0,0,.52,1.457,1.885,1.885,0,0,0,2.706,0,2.255,2.255,0,0,0,.52-1.457,2.006,2.006,0,0,0-.52-1.457,1.778,1.778,0,0,0-2.706,0ZM43.6,8.013c0-1.092.885-1.821,2.237-1.821h1.717V5.775a1.2,1.2,0,0,0-1.3-1.353,2.223,2.223,0,0,0-1.665.937l-.728-.78a2.962,2.962,0,0,1,2.549-1.353c1.457,0,2.445.937,2.445,2.706v3.8h-1.2V9a2.312,2.312,0,0,1-1.925.833C44.434,9.834,43.6,9.105,43.6,8.013Zm1.353-.052c0,.52.416.833,1.04.833a1.567,1.567,0,0,0,1.613-1.509v-.1H46.046Q44.954,7.18,44.954,7.961Zm-7.909.885A3.177,3.177,0,0,1,36.109,6.5a3.177,3.177,0,0,1,.937-2.341,3.142,3.142,0,0,1,2.289-.937,3,3,0,0,1,2.289.989,3.177,3.177,0,0,1,.937,2.341A3.177,3.177,0,0,1,41.624,8.9a3.142,3.142,0,0,1-2.289.937A3.314,3.314,0,0,1,37.045,8.845ZM38.034,5.1a2.006,2.006,0,0,0-.52,1.457,2.09,2.09,0,0,0,.52,1.457,1.885,1.885,0,0,0,2.706,0,2.255,2.255,0,0,0,.52-1.457A2.006,2.006,0,0,0,40.74,5.1a1.752,1.752,0,0,0-1.353-.624A1.61,1.61,0,0,0,38.034,5.1ZM22.009,9.834,20.084,5.619,18.159,9.834H17.69L14.985,3.382h1.4L18,7.492l1.821-4.266h.468L22.165,7.44l1.561-4.059h1.4L22.477,9.834ZM9,8.845A3.177,3.177,0,0,1,8.065,6.5,3.177,3.177,0,0,1,9,4.162a3.143,3.143,0,0,1,2.289-.937,3.077,3.077,0,0,1,2.289.989,3.177,3.177,0,0,1,.937,2.341A3.177,3.177,0,0,1,13.58,8.9a3.142,3.142,0,0,1-2.289.937A3.315,3.315,0,0,1,9,8.845ZM9.938,5.1a2.006,2.006,0,0,0-.52,1.457,2.09,2.09,0,0,0,.52,1.457,1.885,1.885,0,0,0,2.706,0,2.255,2.255,0,0,0,.52-1.457,2.006,2.006,0,0,0-.52-1.457,1.778,1.778,0,0,0-2.706,0ZM80.282,7.6V4.527h-.989V3.382h.989V1.717h1.3V3.382H83.4V4.527H81.583V7.492c0,.833.416,1.092,1.2,1.092a3.13,3.13,0,0,0,.833-.1V9.626a4.592,4.592,0,0,1-1.093.156A1.991,1.991,0,0,1,80.282,7.6ZM51.093,8.845A3.315,3.315,0,0,1,50.261,6.5a3.315,3.315,0,0,1,.833-2.341,2.8,2.8,0,0,1,2.133-.937,2.382,2.382,0,0,1,2.029.937V0h1.3V9.626h-1.2V8.741a2.458,2.458,0,0,1-2.133,1.04A2.726,2.726,0,0,1,51.093,8.845Zm1.04-3.8a1.929,1.929,0,0,0-.52,1.457,2.054,2.054,0,0,0,.52,1.509,1.889,1.889,0,0,0,1.353.572A1.828,1.828,0,0,0,55.308,6.5,2.052,2.052,0,0,0,54.788,5a1.886,1.886,0,0,0-2.654.052ZM88.867,9.678V5.932a1.3,1.3,0,0,0-1.3-1.457,1.352,1.352,0,0,0-1.4,1.457V9.678h-1.3V.052h1.3V4.007a2.292,2.292,0,0,1,4.007,1.717V9.678Zm-15.453,0V5.932a1.3,1.3,0,0,0-1.3-1.457,1.352,1.352,0,0,0-1.4,1.457V9.678h-1.3v-6.3h1.2v.625a2.36,2.36,0,0,1,1.821-.781,2.219,2.219,0,0,1,2.289,2.5V9.678Zm-40.063,0V.052h1.3V9.678Zm-3.07,0V5.932a1.3,1.3,0,0,0-1.3-1.457,1.352,1.352,0,0,0-1.4,1.457V9.678h-1.3v-6.3h1.2v.625a2.36,2.36,0,0,1,1.821-.781,2.245,2.245,0,0,1,2.289,2.5V9.678ZM0,9.678V1.2H2.549A4.372,4.372,0,0,1,5.775,2.341a4.2,4.2,0,0,1,1.2,3.07,4,4,0,0,1-1.2,3.07,4.485,4.485,0,0,1-3.226,1.2Zm1.3-1.2H2.549a2.981,2.981,0,0,0,2.237-.833,2.94,2.94,0,0,0,.833-2.185,2.789,2.789,0,0,0-.833-2.185,2.906,2.906,0,0,0-2.237-.833H1.3Z" transform="translate(42.397 1.405)" fill="#010202"/>
    <path id="Union_4" data-name="Union 4" d="M30.177,20.552V4.37h2.289V6.036a4.65,4.65,0,0,1,3.955-1.977,5.07,5.07,0,0,1,4.006,1.769,6.471,6.471,0,0,1,1.561,4.423,6.468,6.468,0,0,1-1.561,4.422,5.069,5.069,0,0,1-4.006,1.769,4.522,4.522,0,0,1-3.8-1.665v5.775ZM32.623,10.2a3.879,3.879,0,0,0,.989,2.914,3.457,3.457,0,0,0,4.943-.1,3.82,3.82,0,0,0,.989-2.758,3.947,3.947,0,0,0-.989-2.81,3.273,3.273,0,0,0-2.5-1.092C34.184,6.348,32.623,7.648,32.623,10.2ZM16.077,20.552V4.37h2.289V6.036a4.65,4.65,0,0,1,3.955-1.977,5.07,5.07,0,0,1,4.006,1.769,6.473,6.473,0,0,1,1.561,4.423,6.471,6.471,0,0,1-1.561,4.422,5.069,5.069,0,0,1-4.006,1.769,4.521,4.521,0,0,1-3.8-1.665v5.775ZM18.47,10.2a3.879,3.879,0,0,0,.989,2.914A3.337,3.337,0,0,0,21.9,14.1a3.274,3.274,0,0,0,2.5-1.092,3.82,3.82,0,0,0,.989-2.758A3.947,3.947,0,0,0,24.4,7.44a3.273,3.273,0,0,0-2.5-1.092C20.032,6.348,18.47,7.648,18.47,10.2Zm30.906,2.81,1.717-1.353C52.238,13.372,53.539,14.2,55.1,14.2c1.613,0,2.653-.885,2.653-2.237,0-1.145-.624-1.613-2.237-2.394l-1.665-.832c-2.237-1.093-3.538-2.393-3.538-4.423a3.857,3.857,0,0,1,1.4-3.121A5.2,5.2,0,0,1,55.152,0a5.377,5.377,0,0,1,4.839,2.862L58.273,4.214a3.823,3.823,0,0,0-3.225-1.925c-1.249,0-2.289.676-2.289,1.925,0,1.092.572,1.509,2.133,2.289l1.717.833c2.445,1.2,3.642,2.445,3.642,4.526a4.16,4.16,0,0,1-1.457,3.33,5.338,5.338,0,0,1-3.642,1.249A6.493,6.493,0,0,1,49.376,13.008ZM93.914,14.62A6.123,6.123,0,0,1,92.2,10.2a6.046,6.046,0,0,1,1.665-4.371,5.44,5.44,0,0,1,4.162-1.821,4.946,4.946,0,0,1,3.746,1.561,5.464,5.464,0,0,1,1.509,3.9c0,.52-.1,1.04-.156,1.561H94.643a3.5,3.5,0,0,0,3.694,3.121,4.878,4.878,0,0,0,3.33-1.4l1.145,1.717a6.184,6.184,0,0,1-4.527,1.925A5.764,5.764,0,0,1,93.914,14.62Zm.728-5.515h6.191A2.786,2.786,0,0,0,97.92,6.191,3.38,3.38,0,0,0,94.643,9.105ZM72.218,14.568A6,6,0,0,1,70.5,10.2a6.09,6.09,0,0,1,1.717-4.371,6.03,6.03,0,0,1,8.533,0A6.046,6.046,0,0,1,82.52,10.2a6.043,6.043,0,0,1-6.036,6.191A5.854,5.854,0,0,1,72.218,14.568Zm1.821-7.024A3.907,3.907,0,0,0,73.05,10.3a3.907,3.907,0,0,0,.989,2.758,3.124,3.124,0,0,0,2.5,1.092,3.275,3.275,0,0,0,2.5-1.092A4.037,4.037,0,0,0,80.074,10.3a3.856,3.856,0,0,0-1.041-2.758,3.153,3.153,0,0,0-2.5-1.144A3.013,3.013,0,0,0,74.039,7.544Zm-10.77,4.735V6.5H61.4V4.318h1.873V1.2h2.445V4.318H69.1V6.5H65.714v5.619c0,1.509.781,2.029,2.237,2.029A10.493,10.493,0,0,0,69.46,14v2.133a10.791,10.791,0,0,1-2.029.26C64.829,16.389,63.268,15.037,63.268,12.279Zm-51.614,3.9-1.092-2.654H3.694L2.6,16.182H0L6.712,0h.833l6.764,16.182ZM4.579,11.342H9.626l-2.5-6.608Zm80.23,4.787V4.318H87.1V5.88a3.977,3.977,0,0,1,3.33-1.665,3.738,3.738,0,0,1,.885.1V6.556h-.729a3.1,3.1,0,0,0-3.33,3.278v6.3Z" transform="translate(41.773 17.534)" fill="#010202"/>
    <path id="Path_14297" data-name="Path 14297" d="M190.961,122.739c-.052-4.527,3.954-6.712,4.11-6.816a9.19,9.19,0,0,0-6.972-3.538c-2.914-.312-5.775,1.665-7.284,1.665s-3.85-1.613-6.3-1.561a9.341,9.341,0,0,0-7.8,4.475c-3.382,5.463-.884,13.528,2.393,17.95,1.613,2.185,3.486,4.579,5.983,4.527,2.445-.1,3.33-1.457,6.244-1.457s3.746,1.457,6.3,1.4c2.6-.052,4.266-2.185,5.827-4.371a18.575,18.575,0,0,0,2.654-5.047C196.007,129.919,191.013,128.15,190.961,122.739Zm-4.787-13.216A7.555,7.555,0,0,0,188.1,103.8a8.714,8.714,0,0,0-5.619,2.706,7.176,7.176,0,0,0-1.977,5.515A7.484,7.484,0,0,0,186.174,109.523Z" transform="translate(-165.103 -103.8)" fill="#010202"/>
  </g>
</svg>
