<svg xmlns="http://www.w3.org/2000/svg" xmlns:xlink="http://www.w3.org/1999/xlink" width="330" height="500" viewBox="0 0 330 500">
  <defs>
    <clipPath id="clip-path">
      <rect id="Rectangle_22111" data-name="Rectangle 22111" width="330" height="500" transform="translate(0 6440)" fill="#fff"/>
    </clipPath>
  </defs>
  <g id="Mask_Group_49" data-name="Mask Group 49" transform="translate(0 -6440)" clip-path="url(#clip-path)">
    <path id="Union_8" data-name="Union 8" d="M168.191,547.777V298.09L14.149,451.871,0,437.744,164.133,273.889,0,110.032,14.149,95.9,168.191,249.686V0H170.3L318.676,148.122,192.4,273.889,318.676,399.655,170.3,547.777Zm20.186-46.588L290.1,399.64,188.378,298.09Zm0-251.5L290.1,148.139,188.378,46.591ZM341.575,380.9c12.083-18.8,32.241-58.064,31.49-109.884a197.881,197.881,0,0,0-31.488-104.136l16.215-10.394a217.09,217.09,0,0,1,34.539,114.25c.826,56.859-21.285,99.936-34.538,120.552Zm-44.3-55.286A96.924,96.924,0,0,0,312.5,272.5a95.661,95.661,0,0,0-15.223-50.337l16.215-10.391a114.848,114.848,0,0,1,18.275,60.449,116.39,116.39,0,0,1-18.275,63.785Z" transform="translate(-78.354 6384.5)" fill="#36364d" stroke="rgba(0,0,0,0)" stroke-width="1"/>
  </g>
</svg>
