<svg xmlns="http://www.w3.org/2000/svg" width="238" height="74" viewBox="0 0 238 74">
  <g id="Group_14721" data-name="Group 14721" transform="translate(0.225)">
    <rect id="Rectangle_22069" data-name="Rectangle 22069" width="238" height="74" rx="37" transform="translate(-0.225 0)" fill="#f2f2f2"/>
    <g id="Group_14702" data-name="Group 14702" transform="translate(42.55 18.5)">
      <path id="Union_3" data-name="Union 3" d="M56.3,8.793,51.3,2.914V8.637H50V0h.468l4.943,5.88h.052V.156h1.3V8.793Zm-15.245-1.3A4.236,4.236,0,0,1,39.8,4.37a4.235,4.235,0,0,1,1.249-3.121A4.2,4.2,0,0,1,44.121,0a4,4,0,0,1,3.018,1.249A4.236,4.236,0,0,1,48.388,4.37a4.237,4.237,0,0,1-1.248,3.122,4.333,4.333,0,0,1-6.088,0Zm.989-5.359a3.062,3.062,0,0,0-.833,2.237,3.146,3.146,0,0,0,.833,2.237,2.747,2.747,0,0,0,2.081.885A2.831,2.831,0,0,0,46.2,6.608a2.983,2.983,0,0,0,.832-2.237A3.061,3.061,0,0,0,46.2,2.133a2.747,2.747,0,0,0-2.081-.885A2.828,2.828,0,0,0,42.04,2.133ZM1.249,7.492A4.236,4.236,0,0,1,0,4.37,4.234,4.234,0,0,1,1.249,1.249,4.2,4.2,0,0,1,4.318,0a3.755,3.755,0,0,1,3.33,1.769L6.712,2.6A2.851,2.851,0,0,0,4.266,1.249a2.78,2.78,0,0,0-2.133.885A3.06,3.06,0,0,0,1.3,4.37,3.185,3.185,0,0,0,2.133,6.66a2.98,2.98,0,0,0,2.185.885,2.686,2.686,0,0,0,2.445-1.3V5.307h-2.5V4.11h3.85V6.5a4.253,4.253,0,0,1-3.8,2.237A4.2,4.2,0,0,1,1.249,7.492ZM32.207,8.637V1.353H29.449V.156h6.816v1.2H33.508V8.637Zm-5.307,0V.156h1.3V8.637Zm-8.169,0V1.353H15.973V.156h6.816v1.2H20.032V8.637Zm-8.949,0V.156h5.359v1.2H11.083V3.538h3.07v1.2h-3.07V7.44H15.3v1.2Z" transform="translate(42.977 2.246)" fill="#010202"/>
      <path id="Union_2" data-name="Union 2" d="M40.115,19.2l1.248-1.665A5.866,5.866,0,0,0,45.11,19.1a2.9,2.9,0,0,0,3.174-3.174v-.781a4.4,4.4,0,0,1-3.59,1.561A4.832,4.832,0,0,1,41,15.141a5.825,5.825,0,0,1-1.457-4.006A5.506,5.506,0,0,1,41,7.128a4.834,4.834,0,0,1,3.694-1.561A4.279,4.279,0,0,1,48.44,7.388V5.932h2.081v9.886c0,3.486-2.081,5.463-5.307,5.463A6.949,6.949,0,0,1,40.115,19.2Zm2.6-10.562a3.547,3.547,0,0,0-.937,2.5,3.545,3.545,0,0,0,.937,2.5,3.262,3.262,0,0,0,2.341.937,3.412,3.412,0,0,0,2.289-.885,3.463,3.463,0,0,0,.937-2.6A3.1,3.1,0,0,0,45.058,7.7,3.178,3.178,0,0,0,42.717,8.637ZM99.065,20.916V18.939a7.775,7.775,0,0,0,1.248.1,2.239,2.239,0,0,0,2.341-1.613l.416-1.041L98.805,5.827h2.445l3.07,8.065,3.174-8.065h2.445l-5.2,12.279c-.885,2.081-2.081,3.018-3.9,3.018A6.855,6.855,0,0,1,99.065,20.916ZM28.877,15.453a5.607,5.607,0,0,1-1.613-4.11,5.609,5.609,0,0,1,1.613-4.11,5.653,5.653,0,0,1,8.013,0,5.654,5.654,0,0,1,1.665,4.11,5.739,5.739,0,0,1-1.665,4.11,5.589,5.589,0,0,1-4.007,1.665A5.417,5.417,0,0,1,28.877,15.453Zm1.717-6.66a3.585,3.585,0,0,0-.937,2.549,3.675,3.675,0,0,0,.937,2.55,3.267,3.267,0,0,0,4.683,0,3.673,3.673,0,0,0,.937-2.55,3.583,3.583,0,0,0-.937-2.549,3.076,3.076,0,0,0-2.341-1.04A2.777,2.777,0,0,0,30.594,8.793Zm-13.84,6.66a5.607,5.607,0,0,1-1.613-4.11,5.609,5.609,0,0,1,1.613-4.11,5.653,5.653,0,0,1,8.013,0,5.654,5.654,0,0,1,1.665,4.11,5.739,5.739,0,0,1-1.665,4.11,5.589,5.589,0,0,1-4.007,1.665A5.417,5.417,0,0,1,16.754,15.453Zm1.717-6.66a3.585,3.585,0,0,0-.937,2.549,3.675,3.675,0,0,0,.937,2.55,3.267,3.267,0,0,0,4.683,0,3.673,3.673,0,0,0,.937-2.55,3.583,3.583,0,0,0-.937-2.549,3.076,3.076,0,0,0-2.341-1.04A2.777,2.777,0,0,0,18.47,8.793ZM2.185,14.933A7.413,7.413,0,0,1,0,9.469,7.412,7.412,0,0,1,2.185,4.007,7.109,7.109,0,0,1,7.544,1.769a6.543,6.543,0,0,1,5.88,3.174l-1.665,1.4A4.913,4.913,0,0,0,7.492,4.007,4.758,4.758,0,0,0,3.8,5.567a5.615,5.615,0,0,0-1.4,3.9A5.591,5.591,0,0,0,3.85,13.476a4.982,4.982,0,0,0,3.8,1.561A4.754,4.754,0,0,0,11.915,12.8V11.187H7.492V9.053H14.2v4.162a7.533,7.533,0,0,1-6.66,3.9A7.259,7.259,0,0,1,2.185,14.933Zm86.578-1.04c0-1.925,1.509-3.174,3.9-3.174h3.018V9.99a2.1,2.1,0,0,0-2.289-2.341,3.835,3.835,0,0,0-2.966,1.665l-1.3-1.4A5.078,5.078,0,0,1,93.6,5.567c2.654,0,4.37,1.665,4.37,4.579v6.66H95.84V15.557a4.094,4.094,0,0,1-3.382,1.509C90.22,17.066,88.763,15.817,88.763,13.892Zm2.289-.052c0,.937.781,1.457,1.873,1.457a2.571,2.571,0,0,0,2.706-2.6v-.208H92.925C91.677,12.487,91.052,12.956,91.052,13.84ZM58.221,15.4a5.528,5.528,0,0,1-1.613-4.11,5.783,5.783,0,0,1,1.561-4.11,5.189,5.189,0,0,1,3.9-1.665,4.559,4.559,0,0,1,3.486,1.457,5.067,5.067,0,0,1,1.4,3.642,6.941,6.941,0,0,1-.156,1.457H58.9a3.352,3.352,0,0,0,3.486,2.914,4.416,4.416,0,0,0,3.122-1.3L66.6,15.3a5.943,5.943,0,0,1-4.266,1.769A5.57,5.57,0,0,1,58.221,15.4Zm.677-5.1h5.775A2.567,2.567,0,0,0,61.968,7.6,3.154,3.154,0,0,0,58.9,10.3Zm26.119,6.556V0h2.289V16.858Zm-11.395,0V2.029h5.2a4.981,4.981,0,0,1,3.538,1.249,4.312,4.312,0,0,1,1.353,3.278,4.428,4.428,0,0,1-1.353,3.33,5.069,5.069,0,0,1-3.538,1.249H75.912v5.723ZM75.964,9h2.862a2.324,2.324,0,0,0,2.55-2.445,2.324,2.324,0,0,0-2.55-2.445H75.964ZM52.707,16.858V0H55V16.858Z" transform="translate(42.977 15.41)" fill="#010202"/>
      <g id="_2111445" data-name="2111445" transform="translate(0 0)">
        <path id="Path_14325" data-name="Path 14325" d="M28.107,14.229a2.977,2.977,0,0,1-1.525,2.591l-7.7,4.279L12.37,14.229,18.884,7.36l7.7,4.279A2.977,2.977,0,0,1,28.107,14.229Z" transform="translate(4.463 3.536)" fill="#ffc107"/>
        <path id="Path_14326" data-name="Path 14326" d="M17.833,17.473,1.844,34.335A2.886,2.886,0,0,1,1,32.277V2.668A2.886,2.886,0,0,1,1.844.61Z" transform="translate(-1 0.293)" fill="#03a9f4"/>
        <path id="Path_14327" data-name="Path 14327" d="M17.559,12l6.514,6.869c-19.5,10.7-20.319,12.3-22.5,9.993Z" transform="translate(-0.726 5.766)" fill="#f44336"/>
        <path id="Path_14328" data-name="Path 14328" d="M24.073,10.9l-6.514,6.869L1.57.9A2.942,2.942,0,0,1,5.123.37Z" transform="translate(-0.726 0)" fill="#4caf50"/>
      </g>
    </g>
  </g>
</svg>
