<svg xmlns="http://www.w3.org/2000/svg" width="48" height="48" viewBox="0 0 48 48">
  <g id="Group_14741" data-name="Group 14741" transform="translate(-360 -5715)">
    <g id="Ellipse_335" data-name="Ellipse 335" transform="translate(360 5715)" fill="#fff" stroke="#000" stroke-width="1">
      <circle cx="24" cy="24" r="24" stroke="none"/>
      <circle cx="24" cy="24" r="23.5" fill="none"/>
    </g>
    <path id="Union_10" data-name="Union 10" d="M18408.135,12139a3.157,3.157,0,0,1-3.133-3.172v-22.654a3.16,3.16,0,0,1,3.133-3.172h10.734a3.157,3.157,0,0,1,3.131,3.172v22.654a3.154,3.154,0,0,1-3.131,3.172Zm-1.879-3.172a1.891,1.891,0,0,0,1.879,1.9h10.734a1.893,1.893,0,0,0,1.879-1.9v-1.9h-14.492Zm0-3.174h14.492v-16.309h-14.492Zm0-19.48v1.9h14.492v-1.9a1.9,1.9,0,0,0-1.879-1.9h-10.734A1.892,1.892,0,0,0,18406.256,12113.172Zm6.619,22.654a.627.627,0,1,1,.629.633A.628.628,0,0,1,18412.875,12135.826Zm-.623-22.021a.633.633,0,0,1,0-1.266h2.5a.633.633,0,0,1,0,1.266Z" transform="translate(-18029.002 -6385)"/>
  </g>
</svg>
