<svg id="Group_14743" data-name="Group 14743" xmlns="http://www.w3.org/2000/svg" xmlns:xlink="http://www.w3.org/1999/xlink" width="180.859" height="157.502" viewBox="0 0 180.859 157.502">
  <defs>
    <clipPath id="clip-path">
      <rect id="Rectangle_22102" data-name="Rectangle 22102" width="180.859" height="157.502" fill="none"/>
    </clipPath>
  </defs>
  <g id="Group_14742" data-name="Group 14742" clip-path="url(#clip-path)">
    <path id="Path_14431" data-name="Path 14431" d="M91.746,133a6.512,6.512,0,0,0,1.633,4.928,7.705,7.705,0,0,0,2.183,2.089,21.881,21.881,0,0,0,4.524,2.647c.676.327,1.417.585,2.057.842,5.473,2.207,15,3.683,22.1,3.683,8.537,0,16.21-.483,23.589-2.958.793-.265,1.389-.408,2.065-.681,2.865-1.161,6.869-2.938,8.809-5.535,2.579-3.457,2.233-6.768-.758-9.885-2.573-2.679-5.468-3.688-8.636-4.942a25.365,25.365,0,0,0-5.538-1.481l-10.285,16.268c-.372.555-.605.907-.958,1.485a7.593,7.593,0,0,1-10.435,2.535c-.06-.036-.119-.073-.177-.111a9.027,9.027,0,0,1-2.378-2.5c-.328-.5-.534-.887-.882-1.407l-10.437-16.265c-2.693.059-9.68,2.97-12.317,4.923C94,128.05,91.746,130.542,91.746,133" transform="translate(-37.872 -50.24)" fill="#fff" fill-rule="evenodd"/>
    <path id="Path_14432" data-name="Path 14432" d="M128.319,67.383a11.467,11.467,0,0,1-6.989-8.8l-.194-1.341a13.68,13.68,0,0,1,.9-4.777A11.448,11.448,0,0,1,143.9,58.844a9.99,9.99,0,0,1-.658,2.254,11.458,11.458,0,0,1-14.921,6.285m3.307-35.9a23.258,23.258,0,0,0-9.774,2.4,26.953,26.953,0,0,0-3.783,2.2,25.2,25.2,0,0,0-9.9,14.168,23.318,23.318,0,0,0-.827,5.307v2.3a24.97,24.97,0,0,0,4.232,12.94l18.564,28.966c2.83,4.831,5.166-.22,6.612-2.531l5.1-7.934c.267-.447.534-.817.853-1.3l2.516-3.924c.3-.445.5-.833.826-1.322.347-.519.588-.85.906-1.392l3.356-5.231c3.913-5.793,7.637-11.189,7.637-18.583a24.329,24.329,0,0,0-2.4-11.55,24.99,24.99,0,0,0-8.243-9.85,23.252,23.252,0,0,0-3.768-2.211,13.682,13.682,0,0,0-2.052-.861,21.394,21.394,0,0,0-2.3-.765,28.185,28.185,0,0,0-5.95-.827Z" transform="translate(-44.308 -12.995)" fill="#31a4b7"/>
    <path id="Path_14433" data-name="Path 14433" d="M194.592,39.125a1.768,1.768,0,0,1-1.762-1.656c-1.109-17.681-16.763-32.907-34.893-33.937A1.766,1.766,0,1,1,158.083,0l.055,0c19.854,1.13,37,17.838,38.219,37.243A1.767,1.767,0,0,1,194.7,39.12c-.037,0-.075,0-.112,0" transform="translate(-64.497 0)" fill="#fff"/>
    <path id="Path_14434" data-name="Path 14434" d="M185.323,45.623a1.72,1.72,0,0,1-1.715-1.611c-.788-12.571-11.923-23.4-24.822-24.137a1.719,1.719,0,0,1,.195-3.432c14.576.833,27.164,13.1,28.059,27.355a1.72,1.72,0,0,1-1.61,1.822c-.036,0-.073,0-.109,0" transform="translate(-64.891 -6.787)" fill="#fff"/>
    <path id="Path_14435" data-name="Path 14435" d="M286.575,193.4a10.58,10.58,0,0,0-2.861,2.245.544.544,0,0,1-.949-.364v-1.708a1.537,1.537,0,0,0-1.537-1.537h-4.3a1.537,1.537,0,0,0-1.537,1.537v30.02a1.537,1.537,0,0,0,1.537,1.537H281.6a1.537,1.537,0,0,0,1.537-1.537V209.078q0-5.08,2.6-7.654a9.527,9.527,0,0,1,7-2.572q.433,0,.868.031a.866.866,0,0,0,.93-.864v-5.5a.847.847,0,0,0-.882-.842,15.861,15.861,0,0,0-7.081,1.72" transform="translate(-113.68 -79.124)" fill="#31a4b7"/>
    <path id="Path_14436" data-name="Path 14436" d="M92.778,192.867a17.394,17.394,0,0,0-8.614-2.107,17.769,17.769,0,0,0-8.831,2.169,15.8,15.8,0,0,0-6.073,5.981,17.223,17.223,0,0,0-2.2,8.769,16.893,16.893,0,0,0,2.262,8.738,15.933,15.933,0,0,0,6.383,6.042,22.135,22.135,0,0,0,17.352.805,14.87,14.87,0,0,0,4.566-2.9,1.552,1.552,0,0,0,.122-2.152L95.562,215.7a1.536,1.536,0,0,0-2.137-.176,10.4,10.4,0,0,1-2.877,1.7,13.737,13.737,0,0,1-5.02.867,12.564,12.564,0,0,1-5.7-1.24,9.077,9.077,0,0,1-3.843-3.532,9.319,9.319,0,0,1-.829-1.813,1.023,1.023,0,0,1,.969-1.348h23.5a1.243,1.243,0,0,0,1.241-1.178q.031-.618.031-1.115a18.11,18.11,0,0,0-2.169-9.048,15.262,15.262,0,0,0-5.95-5.949m-.489,12.146H76.037a1.063,1.063,0,0,1-1.018-1.349,9.172,9.172,0,0,1,.81-2.029,8.8,8.8,0,0,1,3.347-3.44,9.779,9.779,0,0,1,4.988-1.239,9.658,9.658,0,0,1,4.927,1.239,9.088,9.088,0,0,1,3.378,3.409,8.6,8.6,0,0,1,.846,2.086,1.058,1.058,0,0,1-1.025,1.322" transform="translate(-27.682 -78.745)" fill="#fff"/>
    <path id="Path_14437" data-name="Path 14437" d="M158.724,192.867a17.4,17.4,0,0,0-8.615-2.107,17.769,17.769,0,0,0-8.831,2.169,15.8,15.8,0,0,0-6.073,5.981,17.223,17.223,0,0,0-2.2,8.769,16.893,16.893,0,0,0,2.262,8.738,15.933,15.933,0,0,0,6.383,6.042,22.135,22.135,0,0,0,17.352.805,14.87,14.87,0,0,0,4.565-2.9,1.552,1.552,0,0,0,.122-2.152l-2.182-2.507a1.536,1.536,0,0,0-2.137-.176,10.4,10.4,0,0,1-2.877,1.7,13.737,13.737,0,0,1-5.02.867,12.565,12.565,0,0,1-5.7-1.24,9.077,9.077,0,0,1-3.843-3.532,9.321,9.321,0,0,1-.829-1.813,1.023,1.023,0,0,1,.969-1.348h23.5a1.243,1.243,0,0,0,1.241-1.178q.031-.618.031-1.115a18.11,18.11,0,0,0-2.169-9.048,15.268,15.268,0,0,0-5.949-5.949m-.489,12.146H141.982a1.062,1.062,0,0,1-1.018-1.349,9.174,9.174,0,0,1,.81-2.029,8.8,8.8,0,0,1,3.347-3.44,9.777,9.777,0,0,1,4.988-1.239,9.656,9.656,0,0,1,4.927,1.239,9.09,9.09,0,0,1,3.378,3.409,8.6,8.6,0,0,1,.846,2.086,1.058,1.058,0,0,1-1.025,1.322" transform="translate(-54.904 -78.745)" fill="#fff"/>
    <path id="Path_14438" data-name="Path 14438" d="M235.93,198.754a15.66,15.66,0,0,0-5.95-5.887,17.355,17.355,0,0,0-8.638-2.108.035.035,0,0,0-.013,0,16.2,16.2,0,0,0-9.99,3.846.594.594,0,0,1-.973-.459v-1.483a1.535,1.535,0,0,0-1.534-1.535h-4.307a1.535,1.535,0,0,0-1.534,1.535v42.021a1.559,1.559,0,0,0,1.559,1.559h4.629a1.559,1.559,0,0,0,1.559-1.559V222.06a.8.8,0,0,1,1.308-.62,12.042,12.042,0,0,0,1.946,1.359,14.749,14.749,0,0,0,7.344,1.859,17.347,17.347,0,0,0,8.645-2.106,15.591,15.591,0,0,0,5.95-5.918,19.262,19.262,0,0,0,0-17.88m-6.972,14.44a9.036,9.036,0,0,1-3.5,3.595,9.989,9.989,0,0,1-4.989,1.239,10.159,10.159,0,0,1-5.019-1.239,8.964,8.964,0,0,1-3.533-3.595,12.4,12.4,0,0,1,0-11.063,9.019,9.019,0,0,1,3.533-3.563,10.16,10.16,0,0,1,5.019-1.239,9.99,9.99,0,0,1,4.989,1.239,9.092,9.092,0,0,1,3.5,3.563,12.4,12.4,0,0,1,0,11.063" transform="translate(-83.794 -78.745)" fill="#fff"/>
    <path id="Path_14439" data-name="Path 14439" d="M20.59,194.764a1.886,1.886,0,0,1,.067-2.387l13.4-15.47A1.383,1.383,0,0,0,33,174.618l-6.147.008a2.408,2.408,0,0,0-1.765.775L10.921,190.746a1.332,1.332,0,0,1-2.311-.9V176.419a1.793,1.793,0,0,0-1.793-1.792H1.793A1.793,1.793,0,0,0,0,176.419v39.762a1.793,1.793,0,0,0,1.793,1.793H6.817a1.793,1.793,0,0,0,1.793-1.793V205.637a2.269,2.269,0,0,1,.638-1.578l3.181-3.287a1.439,1.439,0,0,1,2.167.113l12.679,16.173a2.391,2.391,0,0,0,1.882.916h6.53a1.383,1.383,0,0,0,1.1-2.228Z" transform="translate(0 -72.082)" fill="#fff"/>
  </g>
</svg>
