<svg xmlns="http://www.w3.org/2000/svg" xmlns:xlink="http://www.w3.org/1999/xlink" width="325" height="600" viewBox="0 0 325 600">
  <defs>
    <linearGradient id="linear-gradient" x1="0.004" y1="0.029" x2="0.989" y2="0.968" gradientUnits="objectBoundingBox">
      <stop offset="0" stop-color="#425cc2"/>
      <stop offset="0.54" stop-color="#369cc1"/>
      <stop offset="1" stop-color="#31a4b7"/>
    </linearGradient>
    <clipPath id="clip-path">
      <rect id="Rectangle_22087" data-name="Rectangle 22087" width="325" height="600" rx="20" transform="translate(260 3288)" fill="url(#linear-gradient)"/>
    </clipPath>
  </defs>
  <g id="Mask_Group_42" data-name="Mask Group 42" transform="translate(-260 -3288)" clip-path="url(#clip-path)">
    <path id="Path_14335" data-name="Path 14335" d="M515.87,414.2a44.588,44.588,0,0,1-63.053,0l-76.869-76.872a44.58,44.58,0,0,1,0-63.052l76.869-76.87a44.585,44.585,0,0,1,63.053,0l76.872,76.87a44.586,44.586,0,0,1,0,63.052Zm-357.089,0a44.588,44.588,0,0,1-63.053,0l-76.87-76.872a44.584,44.584,0,0,1,0-63.052l76.87-76.87a44.585,44.585,0,0,1,63.053,0l76.87,76.87a44.584,44.584,0,0,1,0,63.052ZM337.327,592.738a44.584,44.584,0,0,1-63.055,0L197.4,515.87a44.586,44.586,0,0,1,0-63.053l76.87-76.869a44.584,44.584,0,0,1,63.055,0L414.2,452.816a44.587,44.587,0,0,1,0,63.053Zm0-357.088a44.587,44.587,0,0,1-63.055,0l-76.87-76.87a44.586,44.586,0,0,1,0-63.053l76.87-76.87a44.587,44.587,0,0,1,63.055,0L414.2,95.727a44.587,44.587,0,0,1,0,63.053Z" transform="translate(-32.396 3282.201)" fill="#fff" opacity="0.06"/>
  </g>
</svg>
