<svg xmlns="http://www.w3.org/2000/svg" xmlns:xlink="http://www.w3.org/1999/xlink" width="396.767" height="381.148" viewBox="0 0 396.767 381.148">
  <defs>
    <clipPath id="clip-path">
      <rect id="Rectangle_22100" data-name="Rectangle 22100" width="396.767" height="381.148" fill="none"/>
    </clipPath>
    <clipPath id="clip-path-2">
      <rect id="Rectangle_22098" data-name="Rectangle 22098" width="11.817" height="97.649" fill="none"/>
    </clipPath>
    <clipPath id="clip-path-3">
      <rect id="Rectangle_22099" data-name="Rectangle 22099" width="28.514" height="50.085" fill="none"/>
    </clipPath>
    <clipPath id="clip-path-4">
      <rect id="Rectangle_22105" data-name="Rectangle 22105" width="80.948" height="50.506" fill="#41bfd4"/>
    </clipPath>
    <clipPath id="clip-path-5">
      <rect id="Rectangle_22104" data-name="Rectangle 22104" width="80.948" height="30.062" fill="#41bfd4"/>
    </clipPath>
  </defs>
  <g id="Group_14739" data-name="Group 14739" transform="translate(-1219 -5467.424)">
    <g id="Group_14738" data-name="Group 14738" transform="translate(1537.228 5506.263)">
      <path id="Path_14376" data-name="Path 14376" d="M346.262,113.616l11.635-1.839a39.211,39.211,0,1,0-9.172-10.625l-.016-.016Z" transform="translate(-343.135 -41.895)" fill="#fff"/>
      <path id="Path_14377" data-name="Path 14377" d="M346.249,113.6s.04-.259.137-.788q.153-.822.442-2.375c.4-2.13,1-5.261,1.767-9.336a.1.1,0,0,1,.121-.083.105.105,0,0,1,.054.029l.016.015-.162.126a39.212,39.212,0,0,1-5.468-18.441,38.36,38.36,0,0,1,.234-6.069,43.057,43.057,0,0,1,1.316-6.375,39.062,39.062,0,0,1,17.962-23.056,39.469,39.469,0,0,1,16.019-5.176,39.289,39.289,0,0,1,33.08,13.058l1.581,1.852c.491.645.937,1.321,1.405,1.976a39.092,39.092,0,0,1,2.5,4.112c.408.688.672,1.446,1.015,2.162.3.734.689,1.433.925,2.188a38.5,38.5,0,0,1,1.363,4.509,40.05,40.05,0,0,1,.143,18.107,39.352,39.352,0,0,1-32.882,30.119,42.674,42.674,0,0,1-6.536.384,50.659,50.659,0,0,1-6.063-.654,38.879,38.879,0,0,1-17.393-8.044l.078.021-8.7,1.312-2.217.327c-.494.072-.736.1-.736.1s.267-.053.773-.138l2.237-.377,8.609-1.424a.1.1,0,0,1,.079.021,38.916,38.916,0,0,0,17.325,7.89,50.621,50.621,0,0,0,6.014.624,42.541,42.541,0,0,0,6.476-.4,39.055,39.055,0,0,0,32.481-29.862,39.64,39.64,0,0,0-.156-17.891,38.012,38.012,0,0,0-1.349-4.453c-.232-.747-.613-1.437-.913-2.161-.339-.708-.6-1.456-1-2.135a38.559,38.559,0,0,0-2.467-4.061c-.463-.648-.9-1.316-1.387-1.952l-1.563-1.83A38.866,38.866,0,0,0,378.73,42.528,38.865,38.865,0,0,0,345.057,70.4a42.883,42.883,0,0,0-1.326,6.314,38.1,38.1,0,0,0-.256,6.017,39.238,39.238,0,0,0,5.328,18.349.1.1,0,0,1-.162.126l-.016-.015.174-.054c-.82,4.033-1.449,7.132-1.877,9.24q-.323,1.568-.493,2.395c-.112.54-.179.825-.179.825" transform="translate(-343.123 -41.877)" fill="#263238"/>
      <path id="Path_14378" data-name="Path 14378" d="M398.385,85.233a3.975,3.975,0,1,1,3.976,3.975,3.975,3.975,0,0,1-3.976-3.975" transform="translate(-347.132 -44.735)" fill="#263238"/>
      <path id="Path_14379" data-name="Path 14379" d="M381.231,85.233a3.976,3.976,0,1,1,3.975,3.975,3.975,3.975,0,0,1-3.975-3.975" transform="translate(-345.887 -44.735)" fill="#263238"/>
      <path id="Path_14380" data-name="Path 14380" d="M364.079,87.22a3.976,3.976,0,1,1,5.431,1.455,3.975,3.975,0,0,1-5.431-1.455" transform="translate(-344.603 -44.735)" fill="#263238"/>
    </g>
    <g id="Group_14736" data-name="Group 14736" transform="translate(1219 5467.424)">
      <g id="Group_14735" data-name="Group 14735" clip-path="url(#clip-path)">
        <path id="Path_14381" data-name="Path 14381" d="M62.955,238.637c-2.448-1.161-6.552-3.578-9.089-4.528a12.05,12.05,0,0,0-7.949-.538c-1.5.5-2.992,1.695-3,3.277l9.973,7.312,10.067-2.649Z" transform="translate(-30.144 -1.162) rotate(-7)" fill="#ff9b6c"/>
        <path id="Path_14382" data-name="Path 14382" d="M49.056,237.8s-17.916-3.882-20.863-5.42S9.6,223.013,7.006,223.013s-4.835.708-5.306,3.3l3.407,2.649.433,1.353,5.824,3.034,1.066,1.956,14.819,7.919s15.566,7.9,18.16,8.372,15.566,1.533,21.109,6.25l22.259-9.135s-6.432-9.135-11.378-11.38c-4.414-2-11.824-2.008-17.013.114Z" transform="translate(-27.087 -0.799) rotate(-7)" fill="#ffc09d"/>
        <path id="Path_14383" data-name="Path 14383" d="M68.822,254.768s28.334,61.786,32.893,74.161c0,0,31.673-5.2,32.758-22.789L93.646,250.5Z" transform="translate(-4.993 -18.174)" fill="#ffc09d"/>
        <path id="Path_14384" data-name="Path 14384" d="M38.427,239.763c0,.017-.106.014-.3-.007a4.987,4.987,0,0,1-.852-.172,18.65,18.65,0,0,1-2.949-1.191c-1.208-.583-2.606-1.352-4.146-2.214-.772-.429-1.579-.885-2.424-1.324s-1.758-.809-2.692-1.219a37.989,37.989,0,0,0-5.362-1.95,8.734,8.734,0,0,0-4.509-.327,3.742,3.742,0,0,0-2.08,2.1,10.6,10.6,0,0,1-.474,1.055c-.016,0,0-.108.045-.3a5.631,5.631,0,0,1,.255-.829,5.031,5.031,0,0,1,.659-1.221,3.241,3.241,0,0,1,1.479-1.129,5.068,5.068,0,0,1,2.234-.22,16.515,16.515,0,0,1,2.5.438,35.418,35.418,0,0,1,5.442,1.936c.931.408,1.86.782,2.721,1.243s1.658.917,2.424,1.357c1.529.884,2.9,1.68,4.081,2.3a24.212,24.212,0,0,0,2.853,1.317c.695.255,1.1.31,1.1.358" transform="translate(-27.943 -1.262) rotate(-7)" fill="#ff9b6c"/>
        <path id="Path_14385" data-name="Path 14385" d="M20.846,230.574a10.328,10.328,0,0,1-2.508-.869,49.69,49.69,0,0,0-5.887-2.351,9.122,9.122,0,0,0-3.387-.289,3.341,3.341,0,0,0-2.39,1.113,3.94,3.94,0,0,0-.7,1.7,2.238,2.238,0,0,1-.134.7,1.917,1.917,0,0,1-.053-.719A3.694,3.694,0,0,1,6.4,227.97a3.116,3.116,0,0,1,1.075-.911,4.736,4.736,0,0,1,1.536-.437,9.04,9.04,0,0,1,3.571.267,35.806,35.806,0,0,1,5.9,2.5,23.462,23.462,0,0,1,2.364,1.179" transform="translate(-27.413 -1.018) rotate(-7)" fill="#ff9b6c"/>
        <path id="Path_14386" data-name="Path 14386" d="M68.633,237.077a2.511,2.511,0,0,1-.727.318c-.477.18-1.182.4-2.063.631a34.189,34.189,0,0,1-14.144.616c-.9-.155-1.619-.311-2.11-.448a2.523,2.523,0,0,1-.752-.254c.018-.076,1.118.143,2.911.364a41.7,41.7,0,0,0,14.016-.61c1.767-.377,2.845-.69,2.869-.616" transform="translate(-1.543 -9.124)" fill="#ff9b6c"/>
        <path id="Path_14387" data-name="Path 14387" d="M335.648,196.253l-41.265-8.533-10.143-7.651-54.448,10.5c-.868,1.592-9.694,13.879-9.694,13.879l-21.438,7.283A45.117,45.117,0,0,0,175.4,226.587a96,96,0,0,0-13.881,23.281c-9.646,22.635-23.568,48.79-23.568,48.79L129.218,284.6,92.442,301.92s21.545,43.439,28.677,49.641c7.929,6.894,26.157,7.688,38.762-5.168,7.6-7.75,29.552-38.4,34.125-46.068l6.75,32.083L207,369.02l-10.092,25.192H344.188l-6.093-23.81s6-62.082,7.659-73.63c3.907-27.257-10.105-100.519-10.105-100.519" transform="translate(-6.707 -13.064)" fill="#33a5b8"/>
        <path id="Path_14388" data-name="Path 14388" d="M354.385,197.519s29.493,8.275,35.984,37.584c3.933,17.764,17.29,68.389,21.987,110.073,2.792,24.779,2.7,47.682,2.792,50.3H369.887L350.7,205.792Z" transform="translate(-25.444 -14.33)" fill="#33a5b8"/>
        <path id="Path_14389" data-name="Path 14389" d="M270.042,223.472a1.214,1.214,0,0,1-.124.305l-.42.853c-.365.747-.9,1.843-1.528,3.249-1.3,2.793-2.845,6.915-5.327,11.522l-.127.235-.205-.174c-3.058-2.606-6.383-5.741-9.813-9.129-6.069-6.027-11.394-11.639-15.331-15.618l-4.676-4.7-1.278-1.271a3.173,3.173,0,0,1-.424-.467,3.094,3.094,0,0,1,.491.4l1.341,1.207c1.149,1.065,2.8,2.625,4.787,4.594,4,3.92,9.368,9.5,15.429,15.517,3.426,3.383,6.731,6.523,9.757,9.141l-.332.06c2.5-4.548,4.1-8.652,5.473-11.422.669-1.393,1.236-2.474,1.643-3.2.192-.33.351-.6.48-.824a1.188,1.188,0,0,1,.186-.271" transform="translate(-16.744 -15.111)"/>
        <path id="Path_14390" data-name="Path 14390" d="M308.565,189.443a3.261,3.261,0,0,1-.088.649c-.087.47-.2,1.084-.345,1.847-.335,1.6-.893,3.893-1.687,6.7-1.6,5.612-4.2,13.247-7.384,21.553-1.691,4.4-3.36,8.547-4.919,12.234l-.12.282-.23-.2c-4.2-3.707-7.968-6.628-10.521-8.8-1.285-1.08-2.285-1.95-2.956-2.562l-.76-.708a1.35,1.35,0,0,1-.244-.262,1.378,1.378,0,0,1,.292.209l.8.655,3.033,2.463c2.6,2.115,6.4,4.983,10.645,8.679l-.35.079c1.531-3.689,3.186-7.844,4.875-12.236,3.185-8.3,5.828-15.9,7.507-21.476.835-2.789,1.441-5.065,1.833-6.646.179-.754.323-1.36.432-1.824a3.371,3.371,0,0,1,.184-.631" transform="translate(-20.264 -13.744)"/>
        <path id="Path_14391" data-name="Path 14391" d="M207.3,333.144a.767.767,0,0,1-.082-.211l-.194-.631-.7-2.44c-.314-1.057-.625-2.37-1-3.891-.388-1.518-.768-3.26-1.169-5.19a257.7,257.7,0,0,1-4.322-30.48c-1.044-11.988-1.275-22.888-1.225-30.767.032-3.941.108-7.128.217-9.329q.079-1.6.124-2.535c.019-.265.032-.481.045-.658a.775.775,0,0,1,.032-.224.861.861,0,0,1,.018.225c0,.178,0,.394,0,.66-.008.62-.02,1.466-.033,2.536-.051,2.2-.075,5.389-.063,9.325.036,7.872.321,18.755,1.364,30.725a281.81,281.81,0,0,0,4.175,30.454c.378,1.931.735,3.675,1.1,5.2.345,1.525.629,2.843.914,3.906l.611,2.461c.058.259.108.47.146.644a.778.778,0,0,1,.034.224" transform="translate(-14.409 -17.905)"/>
        <path id="Path_14392" data-name="Path 14392" d="M357.31,232.582a1.264,1.264,0,0,1,.127.253l.327.762c.291.706.7,1.694,1.218,2.951.257.644.562,1.352.859,2.141q.406,1.2.881,2.6l1.009,2.99q.442,1.619.933,3.414c2.761,9.547,4.165,23.349,3.368,38.462-.815,15.118-2.576,28.705-3.671,38.548-.568,4.9-1.028,8.868-1.35,11.654-.164,1.349-.293,2.409-.385,3.166-.046.339-.083.61-.112.823a1.228,1.228,0,0,1-.055.278,1.292,1.292,0,0,1,.006-.284c.017-.213.038-.486.065-.827.07-.76.169-1.823.294-3.177.261-2.758.67-6.746,1.2-11.672,1.007-9.852,2.715-23.446,3.528-38.534.793-15.081-.55-28.814-3.216-38.353q-.472-1.792-.9-3.412-.516-1.587-.971-2.994l-.842-2.606c-.283-.793-.574-1.505-.818-2.153l-1.131-2.982c-.117-.322-.211-.58-.283-.78a1.283,1.283,0,0,1-.082-.273" transform="translate(-25.923 -16.874)"/>
        <path id="Path_14393" data-name="Path 14393" d="M141.7,339.53c-.134,0-.288-7.072-.347-15.794s0-15.8.136-15.8.288,7.07.347,15.8,0,15.8-.136,15.8" transform="translate(-10.254 -22.341)"/>
        <path id="Path_14394" data-name="Path 14394" d="M285.484,376.47a2.308,2.308,0,0,1,.027-.389c.032-.277.074-.652.128-1.132.126-1.018.306-2.479.537-4.347.121-.945.254-1.994.4-3.139.122-1.152.255-2.4.4-3.743.27-2.688.642-5.742.886-9.133q.209-2.543.437-5.319c.148-1.849.232-3.778.358-5.772.277-3.989.392-8.259.554-12.75.206-8.986.172-18.871-.292-29.234-.51-10.363-1.405-20.211-2.453-29.139-.583-4.456-1.1-8.7-1.748-12.642-.314-1.974-.578-3.887-.9-5.714s-.636-3.58-.934-5.254c-.561-3.354-1.218-6.359-1.74-9.009l-.748-3.689q-.378-1.69-.693-3.088c-.4-1.838-.722-3.274-.942-4.277-.1-.472-.176-.841-.234-1.115a2.239,2.239,0,0,1-.063-.384,2.444,2.444,0,0,1,.111.372l.28,1.1c.242,1,.588,2.428,1.031,4.258q.332,1.391.734,3.08l.787,3.683c.547,2.647,1.228,5.65,1.811,9q.462,2.511.966,5.253c.331,1.828.6,3.74.927,5.716.669,3.946,1.2,8.189,1.795,12.649,1.074,8.935,1.983,18.794,2.494,29.171.466,10.375.485,20.273.255,29.268-.174,4.5-.3,8.77-.6,12.762-.134,2-.228,3.926-.386,5.777s-.319,3.624-.468,5.32c-.266,3.393-.662,6.447-.958,9.133q-.235,2.012-.438,3.741l-.442,3.137c-.269,1.863-.48,3.319-.627,4.336-.074.477-.133.85-.175,1.126a2.366,2.366,0,0,1-.076.381" transform="translate(-20.203 -16.484)"/>
        <path id="Path_14395" data-name="Path 14395" d="M307.171,279.851a.993.993,0,0,1,.186-.031l.579-.071,2.279-.253,8.684-.926,30.934-3.2.229-.024.007.232c.239,9.364.511,19.95.8,31.183l0,.1-.068.072-3.732,4.01-13.508,14.5-.119.128-.156-.078L310.5,314.175l-.1-.049-.011-.109c-.991-10.343-1.81-18.9-2.385-24.893-.273-2.951-.488-5.271-.637-6.879q-.1-1.152-.157-1.794c-.032-.4-.038-.6-.038-.6s.037.224.085.639l.206,1.826c.173,1.615.424,3.947.742,6.913.621,5.961,1.507,14.465,2.578,24.748l-.109-.158,22.821,11.248-.275.05,13.5-14.507,3.733-4.009-.065.17c-.268-11.232-.521-21.818-.745-31.183l.236.208-30.818,2.973-8.743.817-2.326.207-.6.048a1.435,1.435,0,0,1-.213.009" transform="translate(-22.286 -19.977)"/>
        <path id="Path_14396" data-name="Path 14396" d="M350.252,287.246a10.549,10.549,0,0,1-1.605.306c-1.038.168-2.545.378-4.409.618-3.728.48-8.893,1.026-14.6,1.57l-14.608,1.429-4.424.465a10.635,10.635,0,0,1-1.629.12,10.522,10.522,0,0,1,1.605-.306c1.038-.168,2.544-.378,4.408-.618,3.728-.48,8.893-1.027,14.6-1.57L344.2,287.83l4.424-.465a10.486,10.486,0,0,1,1.63-.12" transform="translate(-22.417 -20.839)"/>
        <g id="Group_14731" data-name="Group 14731" transform="translate(334.625 224.185)" opacity="0.3">
          <g id="Group_14730" data-name="Group 14730">
            <g id="Group_14729" data-name="Group 14729" clip-path="url(#clip-path-2)">
              <path id="Path_14397" data-name="Path 14397" d="M362.969,320.42l1.558,18.952c3.438-16.232,8.844-33.676,8-50.246-.834-16.463-2.4-32.408-11.73-47.4a94.169,94.169,0,0,1,5.475,35.235c-.852,19.388-3.307,43.463-3.307,43.463" transform="translate(-360.802 -241.722)"/>
            </g>
          </g>
        </g>
        <path id="Path_14398" data-name="Path 14398" d="M131.524,288.331a5.277,5.277,0,0,0-2.507-2.624c-1.3-.449-2.7.18-3.938.793L91.425,303.256c-2.209,1.1-4.61,2.408-5.448,4.729-1.07,2.969.883,6.1,2.74,8.649,3.1,4.263,6.809,8.893,12.046,9.5L129.7,306.283c3.538-.519,5.738-4.457,5.6-8.031s-1.981-6.829-3.777-9.922" transform="translate(-6.216 -20.718)" fill="#33a5b8"/>
        <path id="Path_14399" data-name="Path 14399" d="M136.309,301.623c.011.012-.091.124-.295.325l-.911.863c-.795.744-1.974,1.79-3.453,3.055-2.957,2.532-7.162,5.9-12.015,9.326s-9.436,6.265-12.811,8.2c-1.688.971-3.067,1.731-4.034,2.231l-1.117.57a1.55,1.55,0,0,1-.405.17,1.54,1.54,0,0,1,.358-.255l1.072-.648,3.952-2.361c3.326-2.011,7.861-4.886,12.707-8.3s9.068-6.732,12.074-9.194l3.547-2.934.97-.793a1.542,1.542,0,0,1,.36-.252" transform="translate(-7.347 -21.883)"/>
        <g id="Group_14734" data-name="Group 14734" transform="translate(260.105 177.824)" opacity="0.3">
          <g id="Group_14733" data-name="Group 14733">
            <g id="Group_14732" data-name="Group 14732" clip-path="url(#clip-path-3)">
              <path id="Path_14400" data-name="Path 14400" d="M308.21,191.735c-3.961,13.158-9.509,28.028-14.189,40.773-3.994-3.389-9.576-7.868-13.569-11.256a111.76,111.76,0,0,0,12.325,19.261c.55.692,1.295,1.451,2.164,1.285.821-.159,1.244-1.054,1.539-1.835q3.653-9.658,7.3-19.315c3.409-9.015,6.709-19.549,4.425-28.912" transform="translate(-280.452 -191.735)"/>
            </g>
          </g>
        </g>
        <path id="Path_14401" data-name="Path 14401" d="M240.221,37.359c12.023-3.471,23.334.03,34.456,5.769S294.765,58.417,300.571,69.5c6.118,11.676,8.825,25.287,6.61,38.28s-9.556,25.232-20.562,32.486c-15.03,9.9-35.746,9.389-51.233.216S209.722,114.4,207.015,96.6c-1.865-12.26-.348-25.19,5.375-36.192s15.842-19.883,27.831-23.053" transform="translate(-14.965 -2.61)" fill="#263238"/>
        <path id="Path_14402" data-name="Path 14402" d="M279.022,75.217c-2.323-4.488-2.221-9.8-3.493-14.693-2.8-10.77-12.614-18.548-23.3-21.661-9.938-2.9-21.43-.718-32.442,4.272-7.548,3.42-14.424,8.672-18.927,15.628a34.6,34.6,0,0,0-2.825,31.591l55.08-14.5c5.734,3.745,11.6,7.549,18.236,9.248a11.657,11.657,0,0,0,5.951.27,5.25,5.25,0,0,0,3.949-4.087c.271-2.178-1.221-4.121-2.231-6.07" transform="translate(-14.182 -2.725)" fill="#263238"/>
        <path id="Path_14403" data-name="Path 14403" d="M292.4,174.538l-14.22-100c-.627-4.73-2.769-9.545-7.536-9.325l-50.067-4.825c-15.687.724-23.05,21.3-21.661,36.945,1.543,17.379,4.113,38.536,8.113,51.069,8.045,25.2,28.341,25.464,28.341,25.464-.007-.088,1.234,5.006,2.778,14.375l32.46,21.586Z" transform="translate(-14.42 -4.381)" fill="#ffc09d"/>
        <path id="Path_14404" data-name="Path 14404" d="M211.959,120.448a3.351,3.351,0,0,0,3.7,2.855,3.206,3.206,0,0,0,2.959-3.508,3.352,3.352,0,0,0-3.7-2.857,3.206,3.206,0,0,0-2.962,3.509" transform="translate(-15.376 -8.483)" fill="#263238"/>
        <path id="Path_14405" data-name="Path 14405" d="M205.654,110.922c.476.369,2.7-1.871,6.268-2.406,3.554-.584,6.449.85,6.77.354.16-.223-.377-.939-1.642-1.594a9.212,9.212,0,0,0-5.5-.816,8.831,8.831,0,0,0-4.907,2.454c-.967,1.008-1.22,1.846-.988,2.008" transform="translate(-14.915 -7.716)" fill="#263238"/>
        <path id="Path_14406" data-name="Path 14406" d="M247.486,114.674a3.349,3.349,0,0,0,3.7,2.854,3.2,3.2,0,0,0,2.958-3.507,3.351,3.351,0,0,0-3.7-2.857,3.205,3.205,0,0,0-2.96,3.509" transform="translate(-17.954 -8.064)" fill="#263238"/>
        <path id="Path_14407" data-name="Path 14407" d="M242.2,105.833c.478.369,2.706-1.871,6.27-2.4,3.553-.586,6.449.849,6.769.353.16-.223-.373-.939-1.643-1.593a9.181,9.181,0,0,0-5.5-.818,8.834,8.834,0,0,0-4.907,2.454c-.965,1.008-1.219,1.847-.989,2.009" transform="translate(-17.566 -7.346)" fill="#263238"/>
        <path id="Path_14408" data-name="Path 14408" d="M233.2,134.517c-.014-.2-2.288-.249-5.948-.16-.925.045-1.814,0-2.062-.6a4.684,4.684,0,0,1,.195-2.791q.779-3.5,1.634-7.341c2.231-10.437,3.7-18.964,3.277-19.051s-2.572,8.3-4.8,18.742q-.792,3.855-1.514,7.366c-.187,1.086-.6,2.35.072,3.644a2.311,2.311,0,0,0,1.7,1.1,6.2,6.2,0,0,0,1.579-.021c3.642-.357,5.887-.683,5.869-.888" transform="translate(-16.229 -7.587)" fill="#263238"/>
        <path id="Path_14409" data-name="Path 14409" d="M238.237,181.606A66.462,66.462,0,0,0,271.416,167.1s-8.1,20.261-31.557,22.3Z" transform="translate(-17.285 -12.123)" fill="#ff9b6c"/>
        <path id="Path_14410" data-name="Path 14410" d="M236.968,145.618a6.5,6.5,0,0,1,5.393-3.265,5.928,5.928,0,0,1,4.38,1.554,3.755,3.755,0,0,1,.931,4.2c-.755,1.5-2.717,2.119-4.492,1.9a13.665,13.665,0,0,1-4.971-2.024,4,4,0,0,1-1.179-.9,1.2,1.2,0,0,1-.2-1.327" transform="translate(-17.174 -10.328)" fill="#ff9b6c"/>
        <path id="Path_14411" data-name="Path 14411" d="M244.888,137.791c-.584.055,0,3.925-2.894,7.177s-7.076,3.455-7.023,4c-.017.25,1.033.611,2.78.392a9.738,9.738,0,0,0,5.9-3.121,8.484,8.484,0,0,0,2.179-5.978c-.1-1.64-.677-2.532-.939-2.47" transform="translate(-17.048 -9.997)" fill="#263238"/>
        <path id="Path_14412" data-name="Path 14412" d="M241.124,94.4c.5.915,3.988-.087,8.246-.222,4.257-.22,7.816.489,8.238-.465.184-.454-.543-1.275-2.05-2.006A14.345,14.345,0,0,0,243,92.235c-1.44.853-2.1,1.732-1.875,2.169" transform="translate(-17.491 -6.567)" fill="#263238"/>
        <path id="Path_14413" data-name="Path 14413" d="M204.2,93.934c.75.713,3.077-.5,6.024-.992,2.929-.594,5.536-.289,5.982-1.223.19-.449-.328-1.2-1.537-1.8a8.839,8.839,0,0,0-9.674,1.784c-.916.991-1.131,1.877-.795,2.231" transform="translate(-14.804 -6.471)" fill="#263238"/>
        <path id="Path_14414" data-name="Path 14414" d="M288.849,66.635c-6.754-14.315-31.183-32.1-46.688-28.916L219.167,56.043a24.34,24.34,0,0,0,18.826,16.269c4.6.756,9.97.416,13.1,3.866,3.2,3.522,2.386,9.383,5.418,13.052,4.2,5.085,13.628,3.56,17.025,9.213,1.484,2.471,1.31,5.681,2.837,8.124,2.037,3.255,11.395,6.478,14.869,4.844s2.661-7.813,3.416-11.208c1.288-5.8.071-8.557-1.008-11.557-2.556-7.107-1.582-15.181-4.805-22.012" transform="translate(-15.901 -2.709)" fill="#263238"/>
        <path id="Path_14415" data-name="Path 14415" d="M285.78,121.4c-.288-1.924,1.242-6.8,3.1-7.384,4.952-1.566,14.156-2.553,16.208,10.315,2.8,17.591-15.435,16.778-15.547,16.279-.086-.39-2.759-12.566-3.757-19.209" transform="translate(-20.731 -8.207)" fill="#ffc09d"/>
        <path id="Path_14416" data-name="Path 14416" d="M294.422,133.513c.069-.069.341.165.9.321a3.107,3.107,0,0,0,2.3-.318c1.75-.978,2.845-4.179,2.424-7.363a10.252,10.252,0,0,0-1.557-4.251,3.582,3.582,0,0,0-2.68-1.984,1.581,1.581,0,0,0-1.675,1.127c-.157.531.011.864-.078.908-.042.053-.424-.234-.4-.982a1.992,1.992,0,0,1,.516-1.213,2.341,2.341,0,0,1,1.624-.718,4.36,4.36,0,0,1,3.636,2.217,10.529,10.529,0,0,1,1.844,4.735c.453,3.562-.833,7.168-3.259,8.309a3.323,3.323,0,0,1-2.877-.019c-.614-.346-.769-.725-.713-.767" transform="translate(-21.305 -8.636)" fill="#ff9b6c"/>
        <path id="Path_14417" data-name="Path 14417" d="M221.568,51.113c-.812,7.383-10.71,17.853-14.878,24-7.953,11.731-9.358,15.487-6.563,39.384-5.261-7.767-9.491-15.483-10.213-24.836s1.654-19.075,7.37-26.512,14.907-12.33,24.283-12.038" transform="translate(-13.769 -3.707)" fill="#263238"/>
        <path id="Path_14418" data-name="Path 14418" d="M269,23.263c3.738-4.1,9.071-6.758,14.634-8.147a35.96,35.96,0,0,1,23.858,2c7.222,3.449,12.8,9.9,14.282,17.337A21.29,21.29,0,0,1,314.09,55.08a35.738,35.738,0,0,0,14.665,8.59c-1.5,2.252-4.28,3.573-7.077,4.046a32.482,32.482,0,0,1-8.473-.057,14.577,14.577,0,0,0,8.1,5.912,26.9,26.9,0,0,1-13.812-.446,53.976,53.976,0,0,1-12.489-5.61c-13.568-7.881-21.05-14.777-30.217-26.942-1.229-5.175.472-13.213,4.21-17.308" transform="translate(-19.182 -1.014)" fill="#263238"/>
        <path id="Path_14419" data-name="Path 14419" d="M298.226,62.126c-9.955-14.543-22.632-22.332-34.108-24.75" transform="translate(-19.162 -2.712)" fill="#263238"/>
        <path id="Path_14420" data-name="Path 14420" d="M264.118,37.376a10.507,10.507,0,0,0,1.625.492c1.048.3,2.558.754,4.376,1.445a54.005,54.005,0,0,1,13.216,7.381,67.866,67.866,0,0,1,10.959,10.492c1.227,1.512,2.221,2.737,2.862,3.621a10.553,10.553,0,0,0,1.07,1.319,10.355,10.355,0,0,0-.9-1.438c-.592-.922-1.543-2.186-2.741-3.737a62.011,62.011,0,0,0-10.93-10.677,50.387,50.387,0,0,0-13.4-7.309,38.832,38.832,0,0,0-4.454-1.294,10.447,10.447,0,0,0-1.675-.295" transform="translate(-19.162 -2.711)" fill="#455a64"/>
        <path id="Path_14421" data-name="Path 14421" d="M307.193,75.391a.822.822,0,0,0-.227.072l-.643.259c-.558.245-1.4.56-2.488.942a40.557,40.557,0,0,1-9.55,1.949,52.316,52.316,0,0,1-14.413-.906,93.271,93.271,0,0,1-16.934-5.273C257.1,70.047,251.591,67.6,246.684,65.2a97.021,97.021,0,0,1-12.549-7.267,62.193,62.193,0,0,1-7.587-6.16c-.849-.786-1.461-1.443-1.887-1.878l-.491-.491a.839.839,0,0,0-.181-.155.816.816,0,0,0,.141.191l.453.526c.4.459.992,1.141,1.822,1.952a57.25,57.25,0,0,0,7.517,6.318,93.419,93.419,0,0,0,12.547,7.4c4.915,2.439,10.414,4.9,16.274,7.292a91.546,91.546,0,0,0,17.039,5.261,51.564,51.564,0,0,0,14.537.8,38.524,38.524,0,0,0,9.586-2.126c1.085-.414,1.917-.761,2.462-1.038l.623-.308a.78.78,0,0,0,.2-.121" transform="translate(-16.251 -3.573)" fill="#455a64"/>
        <path id="Path_14422" data-name="Path 14422" d="M256.9,168.769l-1.692-3.3c.118-.059,11.762-6.041,16.242-9.8,10.552-8.866,20.261-23.031,20.358-23.173l3.064,2.089c-.406.6-10.086,14.724-21.037,23.924-4.8,4.033-16.444,10.014-16.936,10.267" transform="translate(-18.516 -9.612)" fill="#455a64"/>
        <path id="Path_14423" data-name="Path 14423" d="M265.14,160.56s-15.93,7.1-15.93,8.675,2.524,4.731,4.416,4.573,7.364-3.235,8.31-4.5,2.726-4.5,4.619-6.081Z" transform="translate(-18.081 -11.649)" fill="#263238"/>
        <path id="Path_14424" data-name="Path 14424" d="M293.063,103.755l-3.706-.175a86.855,86.855,0,0,0-5.439-31.424c-8.049-20.73-23.521-31.864-45.985-33.092a27.648,27.648,0,0,0-6.109.417l1.624-1.531a9.026,9.026,0,0,1,2.7-1.756,9.15,9.15,0,0,1,4.33-.67c28.366,2.455,41.177,20.484,46.94,35.4a89.039,89.039,0,0,1,5.644,32.833" transform="translate(-16.819 -2.575)" fill="#455a64"/>
        <path id="Path_14425" data-name="Path 14425" d="M306.692,125.894c0,9.331-5.262,16.894-11.755,16.894s-11.754-7.563-11.754-16.894,5.262-16.9,11.754-16.9,11.755,7.564,11.755,16.9" transform="translate(-20.545 -7.908)" fill="#455a64"/>
        <path id="Path_14426" data-name="Path 14426" d="M306.673,125.879a.86.86,0,0,1-.033-.234c-.013-.183-.029-.408-.048-.685-.018-.6-.119-1.488-.277-2.618a19.933,19.933,0,0,0-3.625-8.835,13.087,13.087,0,0,0-2.208-2.271,9.888,9.888,0,0,0-2.993-1.62,8.335,8.335,0,0,0-3.6-.344,9.252,9.252,0,0,0-3.594,1.344,14.23,14.23,0,0,0-5.137,6.456,23,23,0,0,0,0,17.614,14.236,14.236,0,0,0,5.138,6.458,9.257,9.257,0,0,0,3.594,1.344,8.353,8.353,0,0,0,3.6-.344,9.889,9.889,0,0,0,2.993-1.621,13.054,13.054,0,0,0,2.207-2.271,19.92,19.92,0,0,0,3.625-8.834c.159-1.131.26-2.015.277-2.618.019-.277.035-.5.048-.685a.118.118,0,1,1,.049,0v.688a21.553,21.553,0,0,1-.188,2.642,19.67,19.67,0,0,1-3.54,9.014,13.284,13.284,0,0,1-2.247,2.356,10.22,10.22,0,0,1-3.1,1.709,8.732,8.732,0,0,1-3.777.385,9.659,9.659,0,0,1-3.778-1.388,14.637,14.637,0,0,1-5.334-6.646,23.358,23.358,0,0,1,0-17.991,14.628,14.628,0,0,1,5.333-6.644,9.66,9.66,0,0,1,3.777-1.388,8.751,8.751,0,0,1,3.778.384,10.228,10.228,0,0,1,3.1,1.71,13.283,13.283,0,0,1,2.247,2.355,19.645,19.645,0,0,1,3.54,9.015,21.4,21.4,0,0,1,.189,2.642v.688a.854.854,0,0,1-.017.235" transform="translate(-20.527 -7.892)" fill="#263238"/>
        <path id="Path_14427" data-name="Path 14427" d="M304.7,125.351c0,5.939-3.35,10.755-7.483,10.755s-7.482-4.815-7.482-10.755,3.35-10.755,7.482-10.755,7.483,4.815,7.483,10.755" transform="translate(-21.021 -8.314)" fill="#455a64"/>
        <path id="Path_14428" data-name="Path 14428" d="M304.685,125.335c-.055,0-.036-.812-.262-2.247A12.738,12.738,0,0,0,302.1,117.5a6.933,6.933,0,0,0-3.284-2.446,5.24,5.24,0,0,0-2.258-.211,5.807,5.807,0,0,0-2.254.847,8.988,8.988,0,0,0-3.235,4.075,14.581,14.581,0,0,0,0,11.145,8.993,8.993,0,0,0,3.236,4.076,5.807,5.807,0,0,0,2.254.847,5.224,5.224,0,0,0,2.258-.211,6.931,6.931,0,0,0,3.284-2.447,12.738,12.738,0,0,0,2.323-5.591c.225-1.435.207-2.248.262-2.246a2.666,2.666,0,0,1,.028.588,12.838,12.838,0,0,1-.1,1.686,12.461,12.461,0,0,1-2.237,5.771A7.235,7.235,0,0,1,298.942,136a5.625,5.625,0,0,1-2.437.252,6.211,6.211,0,0,1-2.438-.892,9.387,9.387,0,0,1-3.432-4.264,14.932,14.932,0,0,1,0-11.52,9.385,9.385,0,0,1,3.432-4.263,6.212,6.212,0,0,1,2.437-.892,5.636,5.636,0,0,1,2.437.251,7.232,7.232,0,0,1,3.431,2.62,12.462,12.462,0,0,1,2.238,5.77,12.858,12.858,0,0,1,.1,1.687,2.666,2.666,0,0,1-.028.588" transform="translate(-21.002 -8.298)" fill="#263238"/>
        <path id="Path_14429" data-name="Path 14429" d="M303.326,125.587c0,4.273-2.409,7.736-5.383,7.736s-5.382-3.463-5.382-7.736,2.41-7.737,5.382-7.737,5.383,3.464,5.383,7.737" transform="translate(-21.226 -8.55)" fill="#455a64"/>
        <path id="Path_14430" data-name="Path 14430" d="M303.307,125.571c-.048,0-.045-.583-.214-1.612a9.209,9.209,0,0,0-1.683-4,4.944,4.944,0,0,0-2.342-1.735,3.733,3.733,0,0,0-3.2.456c-2.014,1.331-3.085,4.111-3.089,6.887s1.075,5.558,3.089,6.889a3.733,3.733,0,0,0,3.2.456,4.945,4.945,0,0,0,2.342-1.736,9.206,9.206,0,0,0,1.683-4c.17-1.029.166-1.613.214-1.612a1.4,1.4,0,0,1,.033.424,8.65,8.65,0,0,1-.062,1.216,8.922,8.922,0,0,1-1.6,4.176,5.246,5.246,0,0,1-2.488,1.909,4.108,4.108,0,0,1-1.779.187,4.538,4.538,0,0,1-1.78-.648,6.807,6.807,0,0,1-2.5-3.094,10.8,10.8,0,0,1,0-8.341,6.811,6.811,0,0,1,2.5-3.093,4.538,4.538,0,0,1,1.78-.648,4.108,4.108,0,0,1,1.779.187,5.246,5.246,0,0,1,2.487,1.908,8.914,8.914,0,0,1,1.6,4.177,8.65,8.65,0,0,1,.062,1.216,1.405,1.405,0,0,1-.033.424" transform="translate(-21.207 -8.534)" fill="#263238"/>
      </g>
    </g>
    <g id="Group_14746" data-name="Group 14746" transform="translate(17993.729 12100.828)">
      <rect id="Rectangle_22103" data-name="Rectangle 22103" width="80.948" height="50.504" transform="translate(-16766.684 -6475.354)" fill="#33a5b8"/>
      <path id="Path_14446" data-name="Path 14446" d="M0,212.153H80.95L40.476,183.146Z" transform="translate(-16766.686 -6637.002)" fill="#226e7b"/>
      <g id="Group_14750" data-name="Group 14750" transform="translate(-16766.684 -6475.355)">
        <g id="Group_14749" data-name="Group 14749" clip-path="url(#clip-path-4)">
          <g id="Group_14748" data-name="Group 14748" opacity="0.43" style="mix-blend-mode: multiply;isolation: isolate">
            <g id="Group_14747" data-name="Group 14747">
              <g id="Group_14746-2" data-name="Group 14746" clip-path="url(#clip-path-5)">
                <path id="Path_14447" data-name="Path 14447" d="M37.343,29.168,0,0,80.948,0,43.568,29.073a5.616,5.616,0,0,1-6.224.1" fill="#41bfd4"/>
              </g>
            </g>
          </g>
          <path id="Path_14448" data-name="Path 14448" d="M37.43,26.813,0,.016H80.95L43.532,26.82a5.207,5.207,0,0,1-6.1-.006" transform="translate(-0.002 -0.014)" fill="#41bfd4"/>
        </g>
      </g>
    </g>
  </g>
</svg>
