<svg xmlns="http://www.w3.org/2000/svg" width="34" height="34" viewBox="0 0 34 34">
  <g id="Layer_2" data-name="Layer 2" transform="translate(0.175)">
    <g id="_02.twitter" data-name="02.twitter">
      <circle id="background" cx="17" cy="17" r="17" transform="translate(-0.175)" fill="#00a6de"/>
      <path id="icon" d="M54.8,46.313A7.109,7.109,0,0,1,53.363,47.9a.616.616,0,0,0-.222.481v.055a10.1,10.1,0,0,1-.651,3.513,10.29,10.29,0,0,1-1.916,3.212A9.466,9.466,0,0,1,46.42,57.9a10.389,10.389,0,0,1-3.265.507,9.968,9.968,0,0,1-5.005-1.348.288.288,0,0,1-.138-.32.277.277,0,0,1,.27-.208H38.7A6.7,6.7,0,0,0,42.455,55.4a3.637,3.637,0,0,1-2.88-2.472.191.191,0,0,1,.222-.246,3.34,3.34,0,0,0,.611.058h.078a3.64,3.64,0,0,1-2.12-3.347.191.191,0,0,1,.281-.166,3.2,3.2,0,0,0,.829.321,3.638,3.638,0,0,1-.587-4.413A.191.191,0,0,1,39.2,45.1a9.51,9.51,0,0,0,6.537,3.5h.018a.137.137,0,0,0,.133-.148,3.846,3.846,0,0,1,.084-1.329,3.525,3.525,0,0,1,2.37-2.534,3.9,3.9,0,0,1,1.15-.177,3.624,3.624,0,0,1,2.4.906.47.47,0,0,0,.312.12.476.476,0,0,0,.111-.016,6.646,6.646,0,0,0,1.772-.733.188.188,0,0,1,.277.222,3.6,3.6,0,0,1-.955,1.522,6.691,6.691,0,0,0,1.161-.392.191.191,0,0,1,.233.275Z" transform="translate(-29.584 -34.572)" fill="#fff"/>
    </g>
  </g>
</svg>
